[{"type": "track_name", "name": "AFRICA  #", "time": 0}, {"type": "control_change", "time": 0, "control": 0, "value": 0, "channel": 0}, {"type": "program_change", "time": 0, "program": 63, "channel": 0}, {"type": "control_change", "time": 0, "control": 10, "value": 60, "channel": 0}, {"type": "control_change", "time": 0, "control": 91, "value": 99, "channel": 0}, {"type": "control_change", "time": 0, "control": 93, "value": 4, "channel": 0}, {"type": "key_signature", "key": "C", "time": 0}, {"type": "note_on", "time": 6136, "note": 61, "velocity": 89, "channel": 0}, {"type": "note_on", "time": 0, "note": 57, "velocity": 89, "channel": 0}, {"type": "note_on", "time": 8, "note": 52, "velocity": 85, "channel": 0}, {"type": "note_off", "time": 232, "note": 61, "velocity": 0, "channel": 0}, {"type": "note_off", "time": 8, "note": 52, "velocity": 0, "channel": 0}, {"type": "note_off", "time": 8, "note": 57, "velocity": 0, "channel": 0}, {"type": "note_on", "time": 32, "note": 52, "velocity": 81, "channel": 0}, {"type": "note_on", "time": 0, "note": 61, "velocity": 93, "channel": 0}, {"type": "note_on", "time": 0, "note": 57, "velocity": 70, "channel": 0}, {"type": "note_off", "time": 56, "note": 52, "velocity": 0, "channel": 0}, {"type": "note_off", "time": 8, "note": 61, "velocity": 0, "channel": 0}, {"type": "note_off", "time": 0, "note": 57, "velocity": 0, "channel": 0}, {"type": "note_on", "time": 128, "note": 61, "velocity": 85, "channel": 0}, {"type": "note_on", "time": 0, "note": 52, "velocity": 81, "channel": 0}, {"type": "note_on", "time": 0, "note": 57, "velocity": 96, "channel": 0}, {"type": "note_off", "time": 48, "note": 61, "velocity": 0, "channel": 0}, {"type": "note_off", "time": 0, "note": 52, "velocity": 0, "channel": 0}, {"type": "note_off", "time": 0, "note": 57, "velocity": 0, "channel": 0}, {"type": "note_on", "time": 140, "note": 52, "velocity": 81, "channel": 0}, {"type": "note_on", "time": 0, "note": 61, "velocity": 78, "channel": 0}, {"type": "note_on", "time": 0, "note": 57, "velocity": 89, "channel": 0}, {"type": "note_off", "time": 28, "note": 52, "velocity": 0, "channel": 0}, {"type": "note_off", "time": 4, "note": 61, "velocity": 0, "channel": 0}, {"type": "note_off", "time": 8, "note": 57, "velocity": 0, "channel": 0}, {"type": "note_on", "time": 60, "note": 52, "velocity": 74, "channel": 0}, {"type": "note_on", "time": 0, "note": 57, "velocity": 18, "channel": 0}, {"type": "note_on", "time": 0, "note": 61, "velocity": 93, "channel": 0}, {"type": "note_off", "time": 56, "note": 52, "velocity": 0, "channel": 0}, {"type": "note_off", "time": 28, "note": 57, "velocity": 0, "channel": 0}, {"type": "note_off", "time": 4, "note": 61, "velocity": 0, "channel": 0}, {"type": "note_on", "time": 96, "note": 56, "velocity": 85, "channel": 0}, {"type": "note_on", "time": 4, "note": 51, "velocity": 96, "channel": 0}, {"type": "note_on", "time": 0, "note": 59, "velocity": 78, "channel": 0}, {"type": "note_off", "time": 52, "note": 51, "velocity": 0, "channel": 0}, {"type": "note_off", "time": 8, "note": 56, "velocity": 0, "channel": 0}, {"type": "note_off", "time": 8, "note": 59, "velocity": 0, "channel": 0}, {"type": "note_on", "time": 120, "note": 56, "velocity": 93, "channel": 0}, {"type": "note_on", "time": 16, "note": 64, "velocity": 89, "channel": 0}, {"type": "note_on", "time": 0, "note": 61, "velocity": 93, "channel": 0}, {"type": "note_off", "time": 1864, "note": 64, "velocity": 0, "channel": 0}, {"type": "note_off", "time": 8, "note": 61, "velocity": 0, "channel": 0}, {"type": "note_off", "time": 4, "note": 56, "velocity": 0, "channel": 0}, {"type": "note_on", "time": 28, "note": 52, "velocity": 85, "channel": 0}, {"type": "note_on", "time": 0, "note": 61, "velocity": 89, "channel": 0}, {"type": "note_on", "time": 0, "note": 57, "velocity": 89, "channel": 0}, {"type": "note_off", "time": 248, "note": 52, "velocity": 0, "channel": 0}, {"type": "note_off", "time": 0, "note": 61, "velocity": 0, "channel": 0}, {"type": "note_off", "time": 12, "note": 57, "velocity": 0, "channel": 0}, {"type": "note_on", "time": 32, "note": 61, "velocity": 93, "channel": 0}, {"type": "note_on", "time": 4, "note": 52, "velocity": 81, "channel": 0}, {"type": "note_on", "time": 0, "note": 57, "velocity": 70, "channel": 0}, {"type": "note_off", "time": 56, "note": 52, "velocity": 0, "channel": 0}, {"type": "note_off", "time": 8, "note": 61, "velocity": 0, "channel": 0}, {"type": "note_off", "time": 0, "note": 57, "velocity": 0, "channel": 0}, {"type": "note_on", "time": 120, "note": 52, "velocity": 81, "channel": 0}, {"type": "note_on", "time": 0, "note": 61, "velocity": 85, "channel": 0}, {"type": "note_on", "time": 0, "note": 57, "velocity": 96, "channel": 0}, {"type": "note_off", "time": 56, "note": 52, "velocity": 0, "channel": 0}, {"type": "note_off", "time": 4, "note": 61, "velocity": 0, "channel": 0}, {"type": "note_off", "time": 0, "note": 57, "velocity": 0, "channel": 0}, {"type": "note_on", "time": 136, "note": 57, "velocity": 89, "channel": 0}, {"type": "note_on", "time": 4, "note": 52, "velocity": 81, "channel": 0}, {"type": "note_on", "time": 0, "note": 61, "velocity": 78, "channel": 0}, {"type": "note_off", "time": 24, "note": 52, "velocity": 0, "channel": 0}, {"type": "note_off", "time": 0, "note": 61, "velocity": 0, "channel": 0}, {"type": "note_off", "time": 8, "note": 57, "velocity": 0, "channel": 0}, {"type": "note_on", "time": 60, "note": 52, "velocity": 74, "channel": 0}, {"type": "note_on", "time": 4, "note": 57, "velocity": 18, "channel": 0}, {"type": "note_on", "time": 8, "note": 61, "velocity": 93, "channel": 0}, {"type": "note_off", "time": 48, "note": 52, "velocity": 0, "channel": 0}, {"type": "note_off", "time": 32, "note": 57, "velocity": 0, "channel": 0}, {"type": "note_off", "time": 4, "note": 61, "velocity": 0, "channel": 0}, {"type": "note_on", "time": 92, "note": 51, "velocity": 96, "channel": 0}, {"type": "note_on", "time": 4, "note": 56, "velocity": 85, "channel": 0}, {"type": "note_on", "time": 0, "note": 59, "velocity": 78, "channel": 0}, {"type": "note_off", "time": 52, "note": 51, "velocity": 0, "channel": 0}, {"type": "note_off", "time": 4, "note": 56, "velocity": 0, "channel": 0}, {"type": "note_off", "time": 8, "note": 59, "velocity": 0, "channel": 0}, {"type": "note_on", "time": 132, "note": 64, "velocity": 89, "channel": 0}, {"type": "note_on", "time": 0, "note": 56, "velocity": 93, "channel": 0}, {"type": "note_on", "time": 0, "note": 61, "velocity": 93, "channel": 0}, {"type": "note_off", "time": 1872, "note": 64, "velocity": 0, "channel": 0}, {"type": "note_off", "time": 4, "note": 56, "velocity": 0, "channel": 0}, {"type": "note_off", "time": 0, "note": 61, "velocity": 0, "channel": 0}, {"type": "note_on", "time": 36, "note": 52, "velocity": 85, "channel": 0}, {"type": "note_on", "time": 8, "note": 61, "velocity": 89, "channel": 0}, {"type": "note_on", "time": 8, "note": 57, "velocity": 89, "channel": 0}, {"type": "note_off", "time": 224, "note": 61, "velocity": 0, "channel": 0}, {"type": "note_off", "time": 8, "note": 52, "velocity": 0, "channel": 0}, {"type": "note_off", "time": 12, "note": 57, "velocity": 0, "channel": 0}, {"type": "note_on", "time": 32, "note": 61, "velocity": 93, "channel": 0}, {"type": "note_on", "time": 4, "note": 52, "velocity": 81, "channel": 0}, {"type": "note_on", "time": 0, "note": 57, "velocity": 70, "channel": 0}, {"type": "note_off", "time": 56, "note": 52, "velocity": 0, "channel": 0}, {"type": "note_off", "time": 4, "note": 61, "velocity": 0, "channel": 0}, {"type": "note_off", "time": 12, "note": 57, "velocity": 0, "channel": 0}, {"type": "note_on", "time": 116, "note": 61, "velocity": 85, "channel": 0}, {"type": "note_on", "time": 4, "note": 52, "velocity": 81, "channel": 0}, {"type": "note_on", "time": 0, "note": 57, "velocity": 96, "channel": 0}, {"type": "note_off", "time": 48, "note": 52, "velocity": 0, "channel": 0}, {"type": "note_off", "time": 4, "note": 61, "velocity": 0, "channel": 0}, {"type": "note_off", "time": 0, "note": 57, "velocity": 0, "channel": 0}, {"type": "note_on", "time": 132, "note": 52, "velocity": 81, "channel": 0}, {"type": "note_on", "time": 4, "note": 61, "velocity": 78, "channel": 0}, {"type": "note_on", "time": 0, "note": 57, "velocity": 89, "channel": 0}, {"type": "note_off", "time": 28, "note": 52, "velocity": 0, "channel": 0}, {"type": "note_off", "time": 4, "note": 61, "velocity": 0, "channel": 0}, {"type": "note_off", "time": 12, "note": 57, "velocity": 0, "channel": 0}, {"type": "note_on", "time": 52, "note": 52, "velocity": 74, "channel": 0}, {"type": "note_on", "time": 4, "note": 61, "velocity": 93, "channel": 0}, {"type": "note_on", "time": 8, "note": 57, "velocity": 18, "channel": 0}, {"type": "note_off", "time": 52, "note": 52, "velocity": 0, "channel": 0}, {"type": "note_off", "time": 28, "note": 61, "velocity": 0, "channel": 0}, {"type": "note_off", "time": 0, "note": 57, "velocity": 0, "channel": 0}, {"type": "note_on", "time": 96, "note": 51, "velocity": 96, "channel": 0}, {"type": "note_on", "time": 4, "note": 56, "velocity": 85, "channel": 0}, {"type": "note_on", "time": 0, "note": 59, "velocity": 78, "channel": 0}, {"type": "note_off", "time": 52, "note": 51, "velocity": 0, "channel": 0}, {"type": "note_off", "time": 4, "note": 56, "velocity": 0, "channel": 0}, {"type": "note_off", "time": 4, "note": 59, "velocity": 0, "channel": 0}, {"type": "note_on", "time": 136, "note": 56, "velocity": 93, "channel": 0}, {"type": "note_on", "time": 0, "note": 61, "velocity": 93, "channel": 0}, {"type": "note_on", "time": 0, "note": 64, "velocity": 89, "channel": 0}, {"type": "note_off", "time": 1880, "note": 56, "velocity": 0, "channel": 0}, {"type": "note_off", "time": 0, "note": 61, "velocity": 0, "channel": 0}, {"type": "note_off", "time": 0, "note": 64, "velocity": 0, "channel": 0}, {"type": "note_on", "time": 40, "note": 61, "velocity": 89, "channel": 0}, {"type": "note_on", "time": 0, "note": 52, "velocity": 85, "channel": 0}, {"type": "note_on", "time": 0, "note": 57, "velocity": 89, "channel": 0}, {"type": "note_off", "time": 232, "note": 61, "velocity": 0, "channel": 0}, {"type": "note_off", "time": 8, "note": 52, "velocity": 0, "channel": 0}, {"type": "note_off", "time": 8, "note": 57, "velocity": 0, "channel": 0}, {"type": "note_on", "time": 36, "note": 52, "velocity": 81, "channel": 0}, {"type": "note_on", "time": 0, "note": 61, "velocity": 93, "channel": 0}, {"type": "note_on", "time": 0, "note": 57, "velocity": 70, "channel": 0}, {"type": "note_off", "time": 60, "note": 52, "velocity": 0, "channel": 0}, {"type": "note_off", "time": 4, "note": 61, "velocity": 0, "channel": 0}, {"type": "note_off", "time": 4, "note": 57, "velocity": 0, "channel": 0}, {"type": "note_on", "time": 124, "note": 57, "velocity": 96, "channel": 0}, {"type": "note_on", "time": 4, "note": 52, "velocity": 81, "channel": 0}, {"type": "note_on", "time": 0, "note": 61, "velocity": 85, "channel": 0}, {"type": "note_off", "time": 48, "note": 52, "velocity": 0, "channel": 0}, {"type": "note_off", "time": 4, "note": 57, "velocity": 0, "channel": 0}, {"type": "note_off", "time": 0, "note": 61, "velocity": 0, "channel": 0}, {"type": "note_on", "time": 136, "note": 52, "velocity": 81, "channel": 0}, {"type": "note_on", "time": 0, "note": 61, "velocity": 78, "channel": 0}, {"type": "note_on", "time": 4, "note": 57, "velocity": 89, "channel": 0}, {"type": "note_off", "time": 24, "note": 52, "velocity": 0, "channel": 0}, {"type": "note_off", "time": 4, "note": 61, "velocity": 0, "channel": 0}, {"type": "note_off", "time": 4, "note": 57, "velocity": 0, "channel": 0}, {"type": "note_on", "time": 60, "note": 52, "velocity": 74, "channel": 0}, {"type": "note_on", "time": 0, "note": 61, "velocity": 93, "channel": 0}, {"type": "note_on", "time": 12, "note": 57, "velocity": 18, "channel": 0}, {"type": "note_off", "time": 52, "note": 52, "velocity": 0, "channel": 0}, {"type": "note_off", "time": 28, "note": 57, "velocity": 0, "channel": 0}, {"type": "note_off", "time": 4, "note": 61, "velocity": 0, "channel": 0}, {"type": "note_on", "time": 92, "note": 51, "velocity": 96, "channel": 0}, {"type": "note_on", "time": 0, "note": 56, "velocity": 85, "channel": 0}, {"type": "note_on", "time": 0, "note": 59, "velocity": 78, "channel": 0}, {"type": "note_off", "time": 44, "note": 51, "velocity": 0, "channel": 0}, {"type": "note_off", "time": 12, "note": 56, "velocity": 0, "channel": 0}, {"type": "note_off", "time": 0, "note": 59, "velocity": 0, "channel": 0}, {"type": "note_on", "time": 144, "note": 61, "velocity": 93, "channel": 0}, {"type": "note_on", "time": 0, "note": 64, "velocity": 89, "channel": 0}, {"type": "note_on", "time": 8, "note": 56, "velocity": 93, "channel": 0}, {"type": "note_off", "time": 1864, "note": 61, "velocity": 0, "channel": 0}, {"type": "note_off", "time": 0, "note": 64, "velocity": 0, "channel": 0}, {"type": "note_off", "time": 8, "note": 56, "velocity": 0, "channel": 0}, {"type": "note_on", "time": 36, "note": 54, "velocity": 74, "channel": 0}, {"type": "note_on", "time": 4, "note": 59, "velocity": 85, "channel": 0}, {"type": "note_on", "time": 0, "note": 63, "velocity": 89, "channel": 0}, {"type": "note_on", "time": 764, "note": 61, "velocity": 78, "channel": 0}, {"type": "note_off", "time": 4, "note": 59, "velocity": 0, "channel": 0}, {"type": "note_off", "time": 0, "note": 63, "velocity": 0, "channel": 0}, {"type": "note_on", "time": 0, "note": 58, "velocity": 85, "channel": 0}, {"type": "note_off", "time": 684, "note": 54, "velocity": 0, "channel": 0}, {"type": "note_off", "time": 76, "note": 61, "velocity": 0, "channel": 0}, {"type": "note_on", "time": 4, "note": 56, "velocity": 85, "channel": 0}, {"type": "note_on", "time": 0, "note": 59, "velocity": 78, "channel": 0}, {"type": "note_on", "time": 4, "note": 63, "velocity": 70, "channel": 0}, {"type": "note_off", "time": 32, "note": 58, "velocity": 0, "channel": 0}, {"type": "note_off", "time": 1424, "note": 56, "velocity": 0, "channel": 0}, {"type": "note_off", "time": 16, "note": 63, "velocity": 0, "channel": 0}, {"type": "note_on", "time": 60, "note": 61, "velocity": 78, "channel": 0}, {"type": "note_on", "time": 0, "note": 57, "velocity": 78, "channel": 0}, {"type": "note_on", "time": 0, "note": 52, "velocity": 78, "channel": 0}, {"type": "note_off", "time": 8, "note": 59, "velocity": 0, "channel": 0}, {"type": "note_off", "time": 668, "note": 61, "velocity": 0, "channel": 0}, {"type": "note_off", "time": 80, "note": 57, "velocity": 0, "channel": 0}, {"type": "note_on", "time": 12, "note": 56, "velocity": 74, "channel": 0}, {"type": "note_on", "time": 4, "note": 59, "velocity": 81, "channel": 0}, {"type": "note_off", "time": 624, "note": 52, "velocity": 0, "channel": 0}, {"type": "note_off", "time": 140, "note": 56, "velocity": 0, "channel": 0}, {"type": "note_on", "time": 4, "note": 54, "velocity": 74, "channel": 0}, {"type": "note_on", "time": 0, "note": 63, "velocity": 85, "channel": 0}, {"type": "note_off", "time": 680, "note": 54, "velocity": 0, "channel": 0}, {"type": "note_off", "time": 24, "note": 63, "velocity": 0, "channel": 0}, {"type": "note_off", "time": 56, "note": 59, "velocity": 0, "channel": 0}, {"type": "note_on", "time": 8, "note": 61, "velocity": 78, "channel": 0}, {"type": "note_on", "time": 0, "note": 57, "velocity": 74, "channel": 0}, {"type": "note_on", "time": 8, "note": 52, "velocity": 78, "channel": 0}, {"type": "note_off", "time": 216, "note": 52, "velocity": 0, "channel": 0}, {"type": "note_off", "time": 4, "note": 61, "velocity": 0, "channel": 0}, {"type": "note_off", "time": 4, "note": 57, "velocity": 0, "channel": 0}, {"type": "note_on", "time": 52, "note": 57, "velocity": 63, "channel": 0}, {"type": "note_on", "time": 4, "note": 52, "velocity": 85, "channel": 0}, {"type": "note_on", "time": 0, "note": 61, "velocity": 93, "channel": 0}, {"type": "note_off", "time": 56, "note": 52, "velocity": 0, "channel": 0}, {"type": "note_off", "time": 16, "note": 61, "velocity": 0, "channel": 0}, {"type": "note_off", "time": 4, "note": 57, "velocity": 0, "channel": 0}, {"type": "note_on", "time": 112, "note": 52, "velocity": 81, "channel": 0}, {"type": "note_on", "time": 0, "note": 57, "velocity": 81, "channel": 0}, {"type": "note_on", "time": 0, "note": 61, "velocity": 85, "channel": 0}, {"type": "note_off", "time": 64, "note": 52, "velocity": 0, "channel": 0}, {"type": "note_off", "time": 4, "note": 57, "velocity": 0, "channel": 0}, {"type": "note_off", "time": 0, "note": 61, "velocity": 0, "channel": 0}, {"type": "note_on", "time": 124, "note": 57, "velocity": 63, "channel": 0}, {"type": "note_on", "time": 0, "note": 52, "velocity": 66, "channel": 0}, {"type": "note_on", "time": 0, "note": 61, "velocity": 85, "channel": 0}, {"type": "note_off", "time": 32, "note": 57, "velocity": 0, "channel": 0}, {"type": "note_off", "time": 4, "note": 52, "velocity": 0, "channel": 0}, {"type": "note_off", "time": 0, "note": 61, "velocity": 0, "channel": 0}, {"type": "note_on", "time": 64, "note": 52, "velocity": 63, "channel": 0}, {"type": "note_on", "time": 0, "note": 57, "velocity": 48, "channel": 0}, {"type": "note_on", "time": 0, "note": 61, "velocity": 74, "channel": 0}, {"type": "note_off", "time": 72, "note": 52, "velocity": 0, "channel": 0}, {"type": "note_off", "time": 16, "note": 57, "velocity": 0, "channel": 0}, {"type": "note_off", "time": 0, "note": 61, "velocity": 0, "channel": 0}, {"type": "note_on", "time": 100, "note": 56, "velocity": 93, "channel": 0}, {"type": "note_on", "time": 0, "note": 51, "velocity": 81, "channel": 0}, {"type": "note_on", "time": 0, "note": 59, "velocity": 85, "channel": 0}, {"type": "note_off", "time": 44, "note": 56, "velocity": 0, "channel": 0}, {"type": "note_off", "time": 4, "note": 51, "velocity": 0, "channel": 0}, {"type": "note_off", "time": 8, "note": 59, "velocity": 0, "channel": 0}, {"type": "note_on", "time": 140, "note": 56, "velocity": 89, "channel": 0}, {"type": "note_on", "time": 0, "note": 64, "velocity": 93, "channel": 0}, {"type": "note_on", "time": 0, "note": 61, "velocity": 89, "channel": 0}, {"type": "note_off", "time": 352, "note": 56, "velocity": 0, "channel": 0}, {"type": "note_off", "time": 8, "note": 64, "velocity": 0, "channel": 0}, {"type": "note_off", "time": 0, "note": 61, "velocity": 0, "channel": 0}, {"type": "note_on", "time": 20, "note": 54, "velocity": 74, "channel": 0}, {"type": "note_on", "time": 4, "note": 59, "velocity": 85, "channel": 0}, {"type": "note_on", "time": 0, "note": 63, "velocity": 89, "channel": 0}, {"type": "note_on", "time": 764, "note": 61, "velocity": 78, "channel": 0}, {"type": "note_off", "time": 4, "note": 59, "velocity": 0, "channel": 0}, {"type": "note_off", "time": 0, "note": 63, "velocity": 0, "channel": 0}, {"type": "note_on", "time": 0, "note": 58, "velocity": 85, "channel": 0}, {"type": "note_off", "time": 680, "note": 54, "velocity": 0, "channel": 0}, {"type": "note_off", "time": 88, "note": 61, "velocity": 0, "channel": 0}, {"type": "note_on", "time": 8, "note": 56, "velocity": 85, "channel": 0}, {"type": "note_on", "time": 0, "note": 63, "velocity": 70, "channel": 0}, {"type": "note_on", "time": 0, "note": 59, "velocity": 78, "channel": 0}, {"type": "note_off", "time": 32, "note": 58, "velocity": 0, "channel": 0}, {"type": "note_off", "time": 1416, "note": 56, "velocity": 0, "channel": 0}, {"type": "note_off", "time": 12, "note": 63, "velocity": 0, "channel": 0}, {"type": "note_on", "time": 68, "note": 61, "velocity": 78, "channel": 0}, {"type": "note_on", "time": 0, "note": 57, "velocity": 78, "channel": 0}, {"type": "note_on", "time": 0, "note": 52, "velocity": 78, "channel": 0}, {"type": "note_off", "time": 8, "note": 59, "velocity": 0, "channel": 0}, {"type": "note_off", "time": 664, "note": 61, "velocity": 0, "channel": 0}, {"type": "note_off", "time": 80, "note": 57, "velocity": 0, "channel": 0}, {"type": "note_on", "time": 8, "note": 56, "velocity": 74, "channel": 0}, {"type": "note_on", "time": 4, "note": 59, "velocity": 81, "channel": 0}, {"type": "note_off", "time": 628, "note": 52, "velocity": 0, "channel": 0}, {"type": "note_off", "time": 136, "note": 56, "velocity": 0, "channel": 0}, {"type": "note_on", "time": 8, "note": 54, "velocity": 74, "channel": 0}, {"type": "note_on", "time": 0, "note": 63, "velocity": 85, "channel": 0}, {"type": "note_off", "time": 688, "note": 54, "velocity": 0, "channel": 0}, {"type": "note_off", "time": 16, "note": 63, "velocity": 0, "channel": 0}, {"type": "note_off", "time": 48, "note": 59, "velocity": 0, "channel": 0}, {"type": "note_on", "time": 8, "note": 52, "velocity": 78, "channel": 0}, {"type": "note_on", "time": 4, "note": 57, "velocity": 74, "channel": 0}, {"type": "note_on", "time": 4, "note": 61, "velocity": 78, "channel": 0}, {"type": "note_off", "time": 224, "note": 52, "velocity": 0, "channel": 0}, {"type": "note_off", "time": 0, "note": 61, "velocity": 0, "channel": 0}, {"type": "note_off", "time": 4, "note": 57, "velocity": 0, "channel": 0}, {"type": "note_on", "time": 56, "note": 57, "velocity": 63, "channel": 0}, {"type": "note_on", "time": 0, "note": 61, "velocity": 93, "channel": 0}, {"type": "note_on", "time": 4, "note": 52, "velocity": 85, "channel": 0}, {"type": "note_off", "time": 64, "note": 52, "velocity": 0, "channel": 0}, {"type": "note_off", "time": 12, "note": 57, "velocity": 0, "channel": 0}, {"type": "note_off", "time": 4, "note": 61, "velocity": 0, "channel": 0}, {"type": "note_on", "time": 104, "note": 52, "velocity": 81, "channel": 0}, {"type": "note_on", "time": 4, "note": 57, "velocity": 81, "channel": 0}, {"type": "note_on", "time": 0, "note": 61, "velocity": 85, "channel": 0}, {"type": "note_off", "time": 60, "note": 52, "velocity": 0, "channel": 0}, {"type": "note_off", "time": 8, "note": 57, "velocity": 0, "channel": 0}, {"type": "note_off", "time": 4, "note": 61, "velocity": 0, "channel": 0}, {"type": "note_on", "time": 116, "note": 57, "velocity": 63, "channel": 0}, {"type": "note_on", "time": 0, "note": 52, "velocity": 66, "channel": 0}, {"type": "note_on", "time": 0, "note": 61, "velocity": 85, "channel": 0}, {"type": "note_off", "time": 40, "note": 57, "velocity": 0, "channel": 0}, {"type": "note_off", "time": 0, "note": 52, "velocity": 0, "channel": 0}, {"type": "note_off", "time": 0, "note": 61, "velocity": 0, "channel": 0}, {"type": "note_on", "time": 64, "note": 52, "velocity": 63, "channel": 0}, {"type": "note_on", "time": 0, "note": 57, "velocity": 48, "channel": 0}, {"type": "note_on", "time": 0, "note": 61, "velocity": 74, "channel": 0}, {"type": "note_off", "time": 72, "note": 52, "velocity": 0, "channel": 0}, {"type": "note_off", "time": 8, "note": 57, "velocity": 0, "channel": 0}, {"type": "note_off", "time": 8, "note": 61, "velocity": 0, "channel": 0}, {"type": "note_on", "time": 100, "note": 56, "velocity": 93, "channel": 0}, {"type": "note_on", "time": 0, "note": 51, "velocity": 81, "channel": 0}, {"type": "note_on", "time": 0, "note": 59, "velocity": 85, "channel": 0}, {"type": "note_off", "time": 52, "note": 56, "velocity": 0, "channel": 0}, {"type": "note_off", "time": 0, "note": 51, "velocity": 0, "channel": 0}, {"type": "note_off", "time": 16, "note": 59, "velocity": 0, "channel": 0}, {"type": "note_on", "time": 128, "note": 56, "velocity": 89, "channel": 0}, {"type": "note_on", "time": 8, "note": 64, "velocity": 93, "channel": 0}, {"type": "note_on", "time": 0, "note": 61, "velocity": 89, "channel": 0}, {"type": "note_off", "time": 352, "note": 56, "velocity": 0, "channel": 0}, {"type": "note_off", "time": 8, "note": 64, "velocity": 0, "channel": 0}, {"type": "note_off", "time": 0, "note": 61, "velocity": 0, "channel": 0}, {"type": "note_on", "time": 12, "note": 54, "velocity": 74, "channel": 0}, {"type": "note_on", "time": 4, "note": 59, "velocity": 85, "channel": 0}, {"type": "note_on", "time": 0, "note": 63, "velocity": 89, "channel": 0}, {"type": "note_on", "time": 764, "note": 58, "velocity": 85, "channel": 0}, {"type": "note_off", "time": 4, "note": 59, "velocity": 0, "channel": 0}, {"type": "note_off", "time": 0, "note": 63, "velocity": 0, "channel": 0}, {"type": "note_on", "time": 8, "note": 61, "velocity": 78, "channel": 0}, {"type": "note_off", "time": 676, "note": 54, "velocity": 0, "channel": 0}, {"type": "note_on", "time": 80, "note": 63, "velocity": 70, "channel": 0}, {"type": "note_off", "time": 4, "note": 61, "velocity": 0, "channel": 0}, {"type": "note_on", "time": 0, "note": 56, "velocity": 85, "channel": 0}, {"type": "note_on", "time": 0, "note": 59, "velocity": 78, "channel": 0}, {"type": "note_off", "time": 32, "note": 58, "velocity": 0, "channel": 0}, {"type": "note_off", "time": 1424, "note": 56, "velocity": 0, "channel": 0}, {"type": "note_off", "time": 16, "note": 63, "velocity": 0, "channel": 0}, {"type": "note_on", "time": 60, "note": 57, "velocity": 78, "channel": 0}, {"type": "note_on", "time": 4, "note": 61, "velocity": 78, "channel": 0}, {"type": "note_on", "time": 0, "note": 52, "velocity": 78, "channel": 0}, {"type": "note_off", "time": 4, "note": 59, "velocity": 0, "channel": 0}, {"type": "note_off", "time": 668, "note": 61, "velocity": 0, "channel": 0}, {"type": "note_off", "time": 76, "note": 57, "velocity": 0, "channel": 0}, {"type": "note_on", "time": 16, "note": 56, "velocity": 74, "channel": 0}, {"type": "note_on", "time": 4, "note": 59, "velocity": 81, "channel": 0}, {"type": "note_off", "time": 616, "note": 52, "velocity": 0, "channel": 0}, {"type": "note_off", "time": 148, "note": 56, "velocity": 0, "channel": 0}, {"type": "note_on", "time": 0, "note": 54, "velocity": 74, "channel": 0}, {"type": "note_on", "time": 0, "note": 63, "velocity": 85, "channel": 0}, {"type": "note_off", "time": 684, "note": 54, "velocity": 0, "channel": 0}, {"type": "note_off", "time": 24, "note": 63, "velocity": 0, "channel": 0}, {"type": "note_off", "time": 56, "note": 59, "velocity": 0, "channel": 0}, {"type": "note_on", "time": 8, "note": 61, "velocity": 78, "channel": 0}, {"type": "note_on", "time": 0, "note": 52, "velocity": 78, "channel": 0}, {"type": "note_on", "time": 8, "note": 57, "velocity": 74, "channel": 0}, {"type": "note_off", "time": 216, "note": 61, "velocity": 0, "channel": 0}, {"type": "note_off", "time": 0, "note": 52, "velocity": 0, "channel": 0}, {"type": "note_off", "time": 8, "note": 57, "velocity": 0, "channel": 0}, {"type": "note_on", "time": 52, "note": 57, "velocity": 63, "channel": 0}, {"type": "note_on", "time": 4, "note": 52, "velocity": 85, "channel": 0}, {"type": "note_on", "time": 0, "note": 61, "velocity": 93, "channel": 0}, {"type": "note_off", "time": 52, "note": 52, "velocity": 0, "channel": 0}, {"type": "note_off", "time": 20, "note": 61, "velocity": 0, "channel": 0}, {"type": "note_off", "time": 4, "note": 57, "velocity": 0, "channel": 0}, {"type": "note_on", "time": 112, "note": 57, "velocity": 81, "channel": 0}, {"type": "note_on", "time": 0, "note": 61, "velocity": 85, "channel": 0}, {"type": "note_on", "time": 4, "note": 52, "velocity": 81, "channel": 0}, {"type": "note_off", "time": 56, "note": 52, "velocity": 0, "channel": 0}, {"type": "note_off", "time": 8, "note": 57, "velocity": 0, "channel": 0}, {"type": "note_off", "time": 8, "note": 61, "velocity": 0, "channel": 0}, {"type": "note_on", "time": 112, "note": 61, "velocity": 85, "channel": 0}, {"type": "note_on", "time": 4, "note": 57, "velocity": 63, "channel": 0}, {"type": "note_on", "time": 0, "note": 52, "velocity": 66, "channel": 0}, {"type": "note_off", "time": 36, "note": 61, "velocity": 0, "channel": 0}, {"type": "note_off", "time": 0, "note": 57, "velocity": 0, "channel": 0}, {"type": "note_off", "time": 0, "note": 52, "velocity": 0, "channel": 0}, {"type": "note_on", "time": 60, "note": 52, "velocity": 63, "channel": 0}, {"type": "note_on", "time": 0, "note": 57, "velocity": 48, "channel": 0}, {"type": "note_on", "time": 0, "note": 61, "velocity": 74, "channel": 0}, {"type": "note_off", "time": 80, "note": 52, "velocity": 0, "channel": 0}, {"type": "note_off", "time": 12, "note": 57, "velocity": 0, "channel": 0}, {"type": "note_off", "time": 0, "note": 61, "velocity": 0, "channel": 0}, {"type": "note_on", "time": 100, "note": 56, "velocity": 93, "channel": 0}, {"type": "note_on", "time": 0, "note": 51, "velocity": 81, "channel": 0}, {"type": "note_on", "time": 0, "note": 59, "velocity": 85, "channel": 0}, {"type": "note_off", "time": 52, "note": 56, "velocity": 0, "channel": 0}, {"type": "note_off", "time": 0, "note": 51, "velocity": 0, "channel": 0}, {"type": "note_off", "time": 12, "note": 59, "velocity": 0, "channel": 0}, {"type": "note_on", "time": 132, "note": 56, "velocity": 89, "channel": 0}, {"type": "note_on", "time": 0, "note": 64, "velocity": 93, "channel": 0}, {"type": "note_on", "time": 8, "note": 61, "velocity": 89, "channel": 0}, {"type": "note_off", "time": 344, "note": 56, "velocity": 0, "channel": 0}, {"type": "note_off", "time": 8, "note": 64, "velocity": 0, "channel": 0}, {"type": "note_off", "time": 4, "note": 61, "velocity": 0, "channel": 0}, {"type": "note_on", "time": 16, "note": 54, "velocity": 63, "channel": 0}, {"type": "note_on", "time": 4, "note": 63, "velocity": 81, "channel": 0}, {"type": "note_on", "time": 0, "note": 59, "velocity": 81, "channel": 0}, {"type": "note_on", "time": 760, "note": 61, "velocity": 78, "channel": 0}, {"type": "note_on", "time": 0, "note": 58, "velocity": 78, "channel": 0}, {"type": "note_off", "time": 12, "note": 63, "velocity": 0, "channel": 0}, {"type": "note_off", "time": 20, "note": 59, "velocity": 0, "channel": 0}, {"type": "note_off", "time": 672, "note": 54, "velocity": 0, "channel": 0}, {"type": "note_on", "time": 56, "note": 63, "velocity": 70, "channel": 0}, {"type": "note_on", "time": 0, "note": 59, "velocity": 74, "channel": 0}, {"type": "note_on", "time": 8, "note": 56, "velocity": 78, "channel": 0}, {"type": "note_off", "time": 16, "note": 61, "velocity": 0, "channel": 0}, {"type": "note_off", "time": 8, "note": 58, "velocity": 0, "channel": 0}, {"type": "note_off", "time": 1384, "note": 63, "velocity": 0, "channel": 0}, {"type": "note_off", "time": 48, "note": 56, "velocity": 0, "channel": 0}, {"type": "note_off", "time": 48, "note": 59, "velocity": 0, "channel": 0}, {"type": "note_on", "time": 40, "note": 52, "velocity": 81, "channel": 0}, {"type": "note_on", "time": 0, "note": 57, "velocity": 78, "channel": 0}, {"type": "note_on", "time": 0, "note": 61, "velocity": 70, "channel": 0}, {"type": "note_off", "time": 208, "note": 52, "velocity": 0, "channel": 0}, {"type": "note_off", "time": 4, "note": 57, "velocity": 0, "channel": 0}, {"type": "note_off", "time": 4, "note": 61, "velocity": 0, "channel": 0}, {"type": "note_on", "time": 52, "note": 61, "velocity": 85, "channel": 0}, {"type": "note_on", "time": 4, "note": 52, "velocity": 78, "channel": 0}, {"type": "note_on", "time": 12, "note": 57, "velocity": 78, "channel": 0}, {"type": "note_off", "time": 52, "note": 52, "velocity": 0, "channel": 0}, {"type": "note_off", "time": 12, "note": 61, "velocity": 0, "channel": 0}, {"type": "note_off", "time": 0, "note": 57, "velocity": 0, "channel": 0}, {"type": "note_on", "time": 132, "note": 52, "velocity": 78, "channel": 0}, {"type": "note_on", "time": 0, "note": 61, "velocity": 78, "channel": 0}, {"type": "note_on", "time": 0, "note": 57, "velocity": 81, "channel": 0}, {"type": "note_off", "time": 64, "note": 52, "velocity": 0, "channel": 0}, {"type": "note_off", "time": 8, "note": 61, "velocity": 0, "channel": 0}, {"type": "note_off", "time": 0, "note": 57, "velocity": 0, "channel": 0}, {"type": "note_on", "time": 100, "note": 61, "velocity": 70, "channel": 0}, {"type": "note_on", "time": 0, "note": 52, "velocity": 59, "channel": 0}, {"type": "note_on", "time": 16, "note": 57, "velocity": 48, "channel": 0}, {"type": "note_off", "time": 20, "note": 61, "velocity": 0, "channel": 0}, {"type": "note_off", "time": 0, "note": 52, "velocity": 0, "channel": 0}, {"type": "note_off", "time": 8, "note": 57, "velocity": 0, "channel": 0}, {"type": "note_on", "time": 32, "note": 52, "velocity": 55, "channel": 0}, {"type": "note_on", "time": 4, "note": 61, "velocity": 85, "channel": 0}, {"type": "note_on", "time": 12, "note": 57, "velocity": 70, "channel": 0}, {"type": "note_off", "time": 64, "note": 52, "velocity": 0, "channel": 0}, {"type": "note_off", "time": 16, "note": 61, "velocity": 0, "channel": 0}, {"type": "note_off", "time": 0, "note": 57, "velocity": 0, "channel": 0}, {"type": "note_on", "time": 112, "note": 59, "velocity": 85, "channel": 0}, {"type": "note_on", "time": 4, "note": 56, "velocity": 85, "channel": 0}, {"type": "note_on", "time": 0, "note": 51, "velocity": 78, "channel": 0}, {"type": "note_off", "time": 48, "note": 56, "velocity": 0, "channel": 0}, {"type": "note_off", "time": 4, "note": 51, "velocity": 0, "channel": 0}, {"type": "note_off", "time": 4, "note": 59, "velocity": 0, "channel": 0}, {"type": "note_on", "time": 152, "note": 61, "velocity": 85, "channel": 0}, {"type": "note_on", "time": 0, "note": 64, "velocity": 96, "channel": 0}, {"type": "note_on", "time": 12, "note": 56, "velocity": 93, "channel": 0}, {"type": "note_off", "time": 1880, "note": 56, "velocity": 0, "channel": 0}, {"type": "note_off", "time": 4, "note": 61, "velocity": 0, "channel": 0}, {"type": "note_off", "time": 4, "note": 64, "velocity": 0, "channel": 0}, {"type": "note_on", "time": 32, "note": 61, "velocity": 93, "channel": 0}, {"type": "note_on", "time": 0, "note": 66, "velocity": 96, "channel": 0}, {"type": "note_on", "time": 0, "note": 69, "velocity": 104, "channel": 0}, {"type": "note_on", "time": 0, "note": 57, "velocity": 96, "channel": 0}, {"type": "note_on", "time": 756, "note": 62, "velocity": 96, "channel": 0}, {"type": "note_off", "time": 4, "note": 61, "velocity": 0, "channel": 0}, {"type": "note_off", "time": 752, "note": 62, "velocity": 0, "channel": 0}, {"type": "note_off", "time": 8, "note": 66, "velocity": 0, "channel": 0}, {"type": "note_on", "time": 8, "note": 61, "velocity": 89, "channel": 0}, {"type": "note_on", "time": 0, "note": 64, "velocity": 96, "channel": 0}, {"type": "note_off", "time": 768, "note": 69, "velocity": 0, "channel": 0}, {"type": "note_on", "time": 0, "note": 56, "velocity": 93, "channel": 0}, {"type": "note_on", "time": 0, "note": 59, "velocity": 81, "channel": 0}, {"type": "note_off", "time": 4, "note": 61, "velocity": 0, "channel": 0}, {"type": "note_off", "time": 4, "note": 57, "velocity": 0, "channel": 0}, {"type": "note_on", "time": 0, "note": 68, "velocity": 89, "channel": 0}, {"type": "note_on", "time": 276, "note": 69, "velocity": 89, "channel": 0}, {"type": "note_off", "time": 32, "note": 68, "velocity": 0, "channel": 0}, {"type": "note_off", "time": 228, "note": 69, "velocity": 0, "channel": 0}, {"type": "note_on", "time": 28, "note": 68, "velocity": 93, "channel": 0}, {"type": "note_off", "time": 4, "note": 56, "velocity": 0, "channel": 0}, {"type": "note_off", "time": 128, "note": 64, "velocity": 0, "channel": 0}, {"type": "note_off", "time": 56, "note": 59, "velocity": 0, "channel": 0}, {"type": "note_off", "time": 0, "note": 68, "velocity": 0, "channel": 0}, {"type": "note_on", "time": 4, "note": 61, "velocity": 93, "channel": 0}, {"type": "note_on", "time": 0, "note": 57, "velocity": 96, "channel": 0}, {"type": "note_on", "time": 4, "note": 66, "velocity": 96, "channel": 0}, {"type": "note_on", "time": 0, "note": 69, "velocity": 104, "channel": 0}, {"type": "note_off", "time": 764, "note": 61, "velocity": 0, "channel": 0}, {"type": "note_on", "time": 4, "note": 62, "velocity": 96, "channel": 0}, {"type": "note_off", "time": 744, "note": 62, "velocity": 0, "channel": 0}, {"type": "note_off", "time": 8, "note": 66, "velocity": 0, "channel": 0}, {"type": "note_on", "time": 8, "note": 64, "velocity": 96, "channel": 0}, {"type": "note_on", "time": 4, "note": 61, "velocity": 89, "channel": 0}, {"type": "note_off", "time": 772, "note": 69, "velocity": 0, "channel": 0}, {"type": "note_on", "time": 0, "note": 56, "velocity": 93, "channel": 0}, {"type": "note_on", "time": 0, "note": 59, "velocity": 81, "channel": 0}, {"type": "note_off", "time": 8, "note": 57, "velocity": 0, "channel": 0}, {"type": "note_off", "time": 0, "note": 61, "velocity": 0, "channel": 0}, {"type": "note_on", "time": 0, "note": 68, "velocity": 89, "channel": 0}, {"type": "note_on", "time": 276, "note": 69, "velocity": 89, "channel": 0}, {"type": "note_off", "time": 32, "note": 68, "velocity": 0, "channel": 0}, {"type": "note_off", "time": 228, "note": 69, "velocity": 0, "channel": 0}, {"type": "note_on", "time": 28, "note": 68, "velocity": 93, "channel": 0}, {"type": "note_off", "time": 4, "note": 56, "velocity": 0, "channel": 0}, {"type": "note_off", "time": 128, "note": 64, "velocity": 0, "channel": 0}, {"type": "note_off", "time": 64, "note": 59, "velocity": 0, "channel": 0}, {"type": "note_off", "time": 0, "note": 68, "velocity": 0, "channel": 0}, {"type": "note_on", "time": 8, "note": 66, "velocity": 96, "channel": 0}, {"type": "note_on", "time": 0, "note": 69, "velocity": 104, "channel": 0}, {"type": "note_on", "time": 0, "note": 57, "velocity": 96, "channel": 0}, {"type": "note_on", "time": 4, "note": 61, "velocity": 93, "channel": 0}, {"type": "note_off", "time": 752, "note": 61, "velocity": 0, "channel": 0}, {"type": "note_on", "time": 0, "note": 62, "velocity": 96, "channel": 0}, {"type": "note_off", "time": 752, "note": 62, "velocity": 0, "channel": 0}, {"type": "note_off", "time": 20, "note": 66, "velocity": 0, "channel": 0}, {"type": "note_on", "time": 8, "note": 61, "velocity": 89, "channel": 0}, {"type": "note_on", "time": 0, "note": 64, "velocity": 96, "channel": 0}, {"type": "note_off", "time": 760, "note": 69, "velocity": 0, "channel": 0}, {"type": "note_on", "time": 0, "note": 56, "velocity": 93, "channel": 0}, {"type": "note_on", "time": 0, "note": 59, "velocity": 81, "channel": 0}, {"type": "note_off", "time": 8, "note": 57, "velocity": 0, "channel": 0}, {"type": "note_off", "time": 0, "note": 61, "velocity": 0, "channel": 0}, {"type": "note_on", "time": 0, "note": 68, "velocity": 89, "channel": 0}, {"type": "note_on", "time": 276, "note": 69, "velocity": 89, "channel": 0}, {"type": "note_off", "time": 32, "note": 68, "velocity": 0, "channel": 0}, {"type": "note_off", "time": 228, "note": 69, "velocity": 0, "channel": 0}, {"type": "note_on", "time": 28, "note": 68, "velocity": 93, "channel": 0}, {"type": "note_off", "time": 4, "note": 56, "velocity": 0, "channel": 0}, {"type": "note_off", "time": 128, "note": 64, "velocity": 0, "channel": 0}, {"type": "note_off", "time": 48, "note": 59, "velocity": 0, "channel": 0}, {"type": "note_off", "time": 0, "note": 68, "velocity": 0, "channel": 0}, {"type": "note_on", "time": 24, "note": 61, "velocity": 96, "channel": 0}, {"type": "note_on", "time": 0, "note": 66, "velocity": 93, "channel": 0}, {"type": "note_on", "time": 0, "note": 69, "velocity": 100, "channel": 0}, {"type": "note_on", "time": 0, "note": 57, "velocity": 93, "channel": 0}, {"type": "note_on", "time": 752, "note": 62, "velocity": 85, "channel": 0}, {"type": "note_off", "time": 36, "note": 61, "velocity": 0, "channel": 0}, {"type": "note_on", "time": 736, "note": 61, "velocity": 85, "channel": 0}, {"type": "note_on", "time": 0, "note": 64, "velocity": 93, "channel": 0}, {"type": "note_off", "time": 4, "note": 62, "velocity": 0, "channel": 0}, {"type": "note_off", "time": 8, "note": 66, "velocity": 0, "channel": 0}, {"type": "note_off", "time": 752, "note": 69, "velocity": 0, "channel": 0}, {"type": "note_on", "time": 8, "note": 68, "velocity": 81, "channel": 0}, {"type": "note_off", "time": 4, "note": 57, "velocity": 0, "channel": 0}, {"type": "note_on", "time": 4, "note": 56, "velocity": 93, "channel": 0}, {"type": "note_off", "time": 728, "note": 61, "velocity": 0, "channel": 0}, {"type": "note_off", "time": 0, "note": 64, "velocity": 0, "channel": 0}, {"type": "note_off", "time": 8, "note": 68, "velocity": 0, "channel": 0}, {"type": "note_on", "time": 32, "note": 59, "velocity": 89, "channel": 0}, {"type": "note_on", "time": 0, "note": 52, "velocity": 78, "channel": 0}, {"type": "note_off", "time": 728, "note": 56, "velocity": 0, "channel": 0}, {"type": "note_off", "time": 32, "note": 59, "velocity": 0, "channel": 0}, {"type": "note_off", "time": 8, "note": 52, "velocity": 0, "channel": 0}, {"type": "note_on", "time": 0, "note": 59, "velocity": 85, "channel": 0}, {"type": "note_off", "time": 0, "note": 59, "velocity": 0, "channel": 0}, {"type": "note_on", "time": 0, "note": 54, "velocity": 70, "channel": 0}, {"type": "note_on", "time": 0, "note": 57, "velocity": 89, "channel": 0}, {"type": "note_off", "time": 436, "note": 54, "velocity": 0, "channel": 0}, {"type": "note_on", "time": 32, "note": 64, "velocity": 89, "channel": 0}, {"type": "note_on", "time": 0, "note": 56, "velocity": 93, "channel": 0}, {"type": "note_off", "time": 4, "note": 57, "velocity": 0, "channel": 0}, {"type": "note_on", "time": 0, "note": 59, "velocity": 93, "channel": 0}, {"type": "note_off", "time": 272, "note": 64, "velocity": 0, "channel": 0}, {"type": "note_off", "time": 0, "note": 56, "velocity": 0, "channel": 0}, {"type": "note_on", "time": 24, "note": 52, "velocity": 85, "channel": 0}, {"type": "note_on", "time": 0, "note": 61, "velocity": 89, "channel": 0}, {"type": "note_on", "time": 0, "note": 57, "velocity": 89, "channel": 0}, {"type": "note_off", "time": 232, "note": 52, "velocity": 0, "channel": 0}, {"type": "note_off", "time": 0, "note": 61, "velocity": 0, "channel": 0}, {"type": "note_off", "time": 16, "note": 57, "velocity": 0, "channel": 0}, {"type": "note_on", "time": 28, "note": 52, "velocity": 81, "channel": 0}, {"type": "note_on", "time": 0, "note": 61, "velocity": 93, "channel": 0}, {"type": "note_on", "time": 0, "note": 57, "velocity": 70, "channel": 0}, {"type": "note_off", "time": 60, "note": 52, "velocity": 0, "channel": 0}, {"type": "note_off", "time": 8, "note": 61, "velocity": 0, "channel": 0}, {"type": "note_off", "time": 0, "note": 57, "velocity": 0, "channel": 0}, {"type": "note_on", "time": 124, "note": 57, "velocity": 96, "channel": 0}, {"type": "note_on", "time": 4, "note": 52, "velocity": 81, "channel": 0}, {"type": "note_on", "time": 0, "note": 61, "velocity": 85, "channel": 0}, {"type": "note_off", "time": 48, "note": 52, "velocity": 0, "channel": 0}, {"type": "note_off", "time": 4, "note": 61, "velocity": 0, "channel": 0}, {"type": "note_off", "time": 4, "note": 57, "velocity": 0, "channel": 0}, {"type": "note_on", "time": 132, "note": 52, "velocity": 81, "channel": 0}, {"type": "note_on", "time": 0, "note": 61, "velocity": 78, "channel": 0}, {"type": "note_on", "time": 4, "note": 57, "velocity": 89, "channel": 0}, {"type": "note_off", "time": 24, "note": 52, "velocity": 0, "channel": 0}, {"type": "note_off", "time": 4, "note": 61, "velocity": 0, "channel": 0}, {"type": "note_off", "time": 4, "note": 57, "velocity": 0, "channel": 0}, {"type": "note_on", "time": 64, "note": 52, "velocity": 74, "channel": 0}, {"type": "note_on", "time": 0, "note": 57, "velocity": 18, "channel": 0}, {"type": "note_on", "time": 0, "note": 61, "velocity": 93, "channel": 0}, {"type": "note_off", "time": 56, "note": 52, "velocity": 0, "channel": 0}, {"type": "note_off", "time": 24, "note": 57, "velocity": 0, "channel": 0}, {"type": "note_off", "time": 0, "note": 61, "velocity": 0, "channel": 0}, {"type": "note_off", "time": 104, "note": 59, "velocity": 0, "channel": 0}, {"type": "note_on", "time": 4, "note": 51, "velocity": 96, "channel": 0}, {"type": "note_on", "time": 0, "note": 56, "velocity": 85, "channel": 0}, {"type": "note_on", "time": 0, "note": 59, "velocity": 78, "channel": 0}, {"type": "note_off", "time": 52, "note": 51, "velocity": 0, "channel": 0}, {"type": "note_off", "time": 8, "note": 56, "velocity": 0, "channel": 0}, {"type": "note_on", "time": 132, "note": 56, "velocity": 93, "channel": 0}, {"type": "note_on", "time": 0, "note": 61, "velocity": 93, "channel": 0}, {"type": "note_on", "time": 0, "note": 64, "velocity": 89, "channel": 0}, {"type": "note_off", "time": 1052, "note": 59, "velocity": 0, "channel": 0}, {"type": "note_off", "time": 832, "note": 56, "velocity": 0, "channel": 0}, {"type": "note_off", "time": 0, "note": 61, "velocity": 0, "channel": 0}, {"type": "note_off", "time": 0, "note": 64, "velocity": 0, "channel": 0}, {"type": "note_on", "time": 40, "note": 61, "velocity": 89, "channel": 0}, {"type": "note_on", "time": 0, "note": 57, "velocity": 89, "channel": 0}, {"type": "note_on", "time": 8, "note": 52, "velocity": 85, "channel": 0}, {"type": "note_off", "time": 232, "note": 61, "velocity": 0, "channel": 0}, {"type": "note_off", "time": 0, "note": 52, "velocity": 0, "channel": 0}, {"type": "note_off", "time": 8, "note": 57, "velocity": 0, "channel": 0}, {"type": "note_on", "time": 48, "note": 61, "velocity": 93, "channel": 0}, {"type": "note_on", "time": 0, "note": 52, "velocity": 81, "channel": 0}, {"type": "note_on", "time": 0, "note": 57, "velocity": 70, "channel": 0}, {"type": "note_off", "time": 52, "note": 61, "velocity": 0, "channel": 0}, {"type": "note_off", "time": 0, "note": 52, "velocity": 0, "channel": 0}, {"type": "note_off", "time": 4, "note": 57, "velocity": 0, "channel": 0}, {"type": "note_on", "time": 124, "note": 57, "velocity": 96, "channel": 0}, {"type": "note_on", "time": 0, "note": 61, "velocity": 85, "channel": 0}, {"type": "note_on", "time": 4, "note": 52, "velocity": 81, "channel": 0}, {"type": "note_off", "time": 48, "note": 52, "velocity": 0, "channel": 0}, {"type": "note_off", "time": 8, "note": 57, "velocity": 0, "channel": 0}, {"type": "note_off", "time": 0, "note": 61, "velocity": 0, "channel": 0}, {"type": "note_on", "time": 132, "note": 52, "velocity": 81, "channel": 0}, {"type": "note_on", "time": 0, "note": 57, "velocity": 89, "channel": 0}, {"type": "note_on", "time": 4, "note": 61, "velocity": 78, "channel": 0}, {"type": "note_off", "time": 28, "note": 52, "velocity": 0, "channel": 0}, {"type": "note_off", "time": 4, "note": 57, "velocity": 0, "channel": 0}, {"type": "note_off", "time": 0, "note": 61, "velocity": 0, "channel": 0}, {"type": "note_on", "time": 64, "note": 52, "velocity": 74, "channel": 0}, {"type": "note_on", "time": 8, "note": 57, "velocity": 18, "channel": 0}, {"type": "note_on", "time": 0, "note": 61, "velocity": 93, "channel": 0}, {"type": "note_off", "time": 48, "note": 52, "velocity": 0, "channel": 0}, {"type": "note_off", "time": 32, "note": 57, "velocity": 0, "channel": 0}, {"type": "note_off", "time": 4, "note": 61, "velocity": 0, "channel": 0}, {"type": "note_on", "time": 96, "note": 51, "velocity": 96, "channel": 0}, {"type": "note_on", "time": 0, "note": 56, "velocity": 85, "channel": 0}, {"type": "note_on", "time": 0, "note": 59, "velocity": 78, "channel": 0}, {"type": "note_off", "time": 52, "note": 51, "velocity": 0, "channel": 0}, {"type": "note_off", "time": 8, "note": 56, "velocity": 0, "channel": 0}, {"type": "note_off", "time": 4, "note": 59, "velocity": 0, "channel": 0}, {"type": "note_on", "time": 132, "note": 64, "velocity": 89, "channel": 0}, {"type": "note_on", "time": 8, "note": 56, "velocity": 93, "channel": 0}, {"type": "note_on", "time": 0, "note": 61, "velocity": 93, "channel": 0}, {"type": "note_off", "time": 1872, "note": 64, "velocity": 0, "channel": 0}, {"type": "note_off", "time": 4, "note": 56, "velocity": 0, "channel": 0}, {"type": "note_off", "time": 0, "note": 61, "velocity": 0, "channel": 0}, {"type": "note_on", "time": 36, "note": 63, "velocity": 89, "channel": 0}, {"type": "note_on", "time": 0, "note": 54, "velocity": 74, "channel": 0}, {"type": "note_on", "time": 8, "note": 59, "velocity": 85, "channel": 0}, {"type": "note_on", "time": 756, "note": 61, "velocity": 78, "channel": 0}, {"type": "note_off", "time": 4, "note": 63, "velocity": 0, "channel": 0}, {"type": "note_off", "time": 0, "note": 59, "velocity": 0, "channel": 0}, {"type": "note_on", "time": 0, "note": 58, "velocity": 85, "channel": 0}, {"type": "note_off", "time": 680, "note": 54, "velocity": 0, "channel": 0}, {"type": "note_off", "time": 80, "note": 61, "velocity": 0, "channel": 0}, {"type": "note_on", "time": 8, "note": 56, "velocity": 85, "channel": 0}, {"type": "note_on", "time": 0, "note": 59, "velocity": 78, "channel": 0}, {"type": "note_on", "time": 8, "note": 63, "velocity": 70, "channel": 0}, {"type": "note_off", "time": 24, "note": 58, "velocity": 0, "channel": 0}, {"type": "note_off", "time": 1416, "note": 56, "velocity": 0, "channel": 0}, {"type": "note_off", "time": 24, "note": 63, "velocity": 0, "channel": 0}, {"type": "note_on", "time": 64, "note": 61, "velocity": 78, "channel": 0}, {"type": "note_on", "time": 0, "note": 57, "velocity": 78, "channel": 0}, {"type": "note_on", "time": 0, "note": 52, "velocity": 78, "channel": 0}, {"type": "note_off", "time": 8, "note": 59, "velocity": 0, "channel": 0}, {"type": "note_off", "time": 664, "note": 61, "velocity": 0, "channel": 0}, {"type": "note_off", "time": 80, "note": 57, "velocity": 0, "channel": 0}, {"type": "note_on", "time": 12, "note": 56, "velocity": 74, "channel": 0}, {"type": "note_on", "time": 0, "note": 59, "velocity": 81, "channel": 0}, {"type": "note_off", "time": 628, "note": 52, "velocity": 0, "channel": 0}, {"type": "note_off", "time": 136, "note": 56, "velocity": 0, "channel": 0}, {"type": "note_on", "time": 8, "note": 54, "velocity": 74, "channel": 0}, {"type": "note_on", "time": 0, "note": 63, "velocity": 85, "channel": 0}, {"type": "note_off", "time": 688, "note": 54, "velocity": 0, "channel": 0}, {"type": "note_off", "time": 16, "note": 63, "velocity": 0, "channel": 0}, {"type": "note_off", "time": 56, "note": 59, "velocity": 0, "channel": 0}, {"type": "note_on", "time": 4, "note": 52, "velocity": 78, "channel": 0}, {"type": "note_on", "time": 4, "note": 57, "velocity": 74, "channel": 0}, {"type": "note_on", "time": 8, "note": 61, "velocity": 78, "channel": 0}, {"type": "note_off", "time": 216, "note": 52, "velocity": 0, "channel": 0}, {"type": "note_off", "time": 0, "note": 61, "velocity": 0, "channel": 0}, {"type": "note_off", "time": 8, "note": 57, "velocity": 0, "channel": 0}, {"type": "note_on", "time": 52, "note": 52, "velocity": 85, "channel": 0}, {"type": "note_on", "time": 0, "note": 61, "velocity": 93, "channel": 0}, {"type": "note_on", "time": 0, "note": 57, "velocity": 63, "channel": 0}, {"type": "note_off", "time": 68, "note": 52, "velocity": 0, "channel": 0}, {"type": "note_off", "time": 16, "note": 61, "velocity": 0, "channel": 0}, {"type": "note_off", "time": 0, "note": 57, "velocity": 0, "channel": 0}, {"type": "note_on", "time": 104, "note": 52, "velocity": 81, "channel": 0}, {"type": "note_on", "time": 4, "note": 57, "velocity": 81, "channel": 0}, {"type": "note_on", "time": 0, "note": 61, "velocity": 85, "channel": 0}, {"type": "note_off", "time": 60, "note": 52, "velocity": 0, "channel": 0}, {"type": "note_off", "time": 8, "note": 57, "velocity": 0, "channel": 0}, {"type": "note_off", "time": 4, "note": 61, "velocity": 0, "channel": 0}, {"type": "note_on", "time": 124, "note": 61, "velocity": 85, "channel": 0}, {"type": "note_on", "time": 8, "note": 57, "velocity": 63, "channel": 0}, {"type": "note_on", "time": 0, "note": 52, "velocity": 66, "channel": 0}, {"type": "note_off", "time": 24, "note": 61, "velocity": 0, "channel": 0}, {"type": "note_off", "time": 0, "note": 57, "velocity": 0, "channel": 0}, {"type": "note_off", "time": 0, "note": 52, "velocity": 0, "channel": 0}, {"type": "note_on", "time": 64, "note": 52, "velocity": 63, "channel": 0}, {"type": "note_on", "time": 0, "note": 57, "velocity": 48, "channel": 0}, {"type": "note_on", "time": 8, "note": 61, "velocity": 74, "channel": 0}, {"type": "note_off", "time": 64, "note": 52, "velocity": 0, "channel": 0}, {"type": "note_off", "time": 16, "note": 57, "velocity": 0, "channel": 0}, {"type": "note_off", "time": 8, "note": 61, "velocity": 0, "channel": 0}, {"type": "note_on", "time": 92, "note": 56, "velocity": 93, "channel": 0}, {"type": "note_on", "time": 0, "note": 51, "velocity": 81, "channel": 0}, {"type": "note_on", "time": 0, "note": 59, "velocity": 85, "channel": 0}, {"type": "note_off", "time": 52, "note": 56, "velocity": 0, "channel": 0}, {"type": "note_off", "time": 0, "note": 51, "velocity": 0, "channel": 0}, {"type": "note_off", "time": 8, "note": 59, "velocity": 0, "channel": 0}, {"type": "note_on", "time": 136, "note": 64, "velocity": 93, "channel": 0}, {"type": "note_on", "time": 0, "note": 61, "velocity": 89, "channel": 0}, {"type": "note_on", "time": 8, "note": 56, "velocity": 89, "channel": 0}, {"type": "note_off", "time": 344, "note": 56, "velocity": 0, "channel": 0}, {"type": "note_off", "time": 8, "note": 64, "velocity": 0, "channel": 0}, {"type": "note_off", "time": 0, "note": 61, "velocity": 0, "channel": 0}, {"type": "note_on", "time": 20, "note": 63, "velocity": 89, "channel": 0}, {"type": "note_on", "time": 4, "note": 59, "velocity": 85, "channel": 0}, {"type": "note_on", "time": 0, "note": 54, "velocity": 74, "channel": 0}, {"type": "note_on", "time": 764, "note": 58, "velocity": 85, "channel": 0}, {"type": "note_off", "time": 4, "note": 63, "velocity": 0, "channel": 0}, {"type": "note_off", "time": 0, "note": 59, "velocity": 0, "channel": 0}, {"type": "note_on", "time": 8, "note": 61, "velocity": 78, "channel": 0}, {"type": "note_off", "time": 672, "note": 54, "velocity": 0, "channel": 0}, {"type": "note_on", "time": 80, "note": 56, "velocity": 85, "channel": 0}, {"type": "note_on", "time": 0, "note": 63, "velocity": 70, "channel": 0}, {"type": "note_on", "time": 0, "note": 59, "velocity": 78, "channel": 0}, {"type": "note_off", "time": 8, "note": 61, "velocity": 0, "channel": 0}, {"type": "note_off", "time": 32, "note": 58, "velocity": 0, "channel": 0}, {"type": "note_off", "time": 1424, "note": 56, "velocity": 0, "channel": 0}, {"type": "note_off", "time": 16, "note": 63, "velocity": 0, "channel": 0}, {"type": "note_off", "time": 72, "note": 59, "velocity": 0, "channel": 0}, {"type": "note_on", "time": 0, "note": 61, "velocity": 78, "channel": 0}, {"type": "note_on", "time": 0, "note": 57, "velocity": 78, "channel": 0}, {"type": "note_on", "time": 0, "note": 52, "velocity": 78, "channel": 0}, {"type": "note_off", "time": 664, "note": 61, "velocity": 0, "channel": 0}, {"type": "note_off", "time": 76, "note": 57, "velocity": 0, "channel": 0}, {"type": "note_on", "time": 16, "note": 59, "velocity": 81, "channel": 0}, {"type": "note_on", "time": 4, "note": 56, "velocity": 74, "channel": 0}, {"type": "note_off", "time": 616, "note": 52, "velocity": 0, "channel": 0}, {"type": "note_on", "time": 148, "note": 63, "velocity": 85, "channel": 0}, {"type": "note_off", "time": 4, "note": 56, "velocity": 0, "channel": 0}, {"type": "note_on", "time": 0, "note": 54, "velocity": 74, "channel": 0}, {"type": "note_off", "time": 680, "note": 54, "velocity": 0, "channel": 0}, {"type": "note_off", "time": 24, "note": 63, "velocity": 0, "channel": 0}, {"type": "note_off", "time": 56, "note": 59, "velocity": 0, "channel": 0}, {"type": "note_on", "time": 8, "note": 61, "velocity": 78, "channel": 0}, {"type": "note_on", "time": 0, "note": 52, "velocity": 78, "channel": 0}, {"type": "note_on", "time": 0, "note": 57, "velocity": 74, "channel": 0}, {"type": "note_off", "time": 224, "note": 61, "velocity": 0, "channel": 0}, {"type": "note_off", "time": 0, "note": 52, "velocity": 0, "channel": 0}, {"type": "note_off", "time": 0, "note": 57, "velocity": 0, "channel": 0}, {"type": "note_on", "time": 60, "note": 57, "velocity": 63, "channel": 0}, {"type": "note_on", "time": 0, "note": 61, "velocity": 93, "channel": 0}, {"type": "note_on", "time": 4, "note": 52, "velocity": 85, "channel": 0}, {"type": "note_off", "time": 56, "note": 52, "velocity": 0, "channel": 0}, {"type": "note_off", "time": 20, "note": 57, "velocity": 0, "channel": 0}, {"type": "note_off", "time": 4, "note": 61, "velocity": 0, "channel": 0}, {"type": "note_on", "time": 104, "note": 61, "velocity": 85, "channel": 0}, {"type": "note_on", "time": 4, "note": 52, "velocity": 81, "channel": 0}, {"type": "note_on", "time": 0, "note": 57, "velocity": 81, "channel": 0}, {"type": "note_off", "time": 60, "note": 52, "velocity": 0, "channel": 0}, {"type": "note_off", "time": 8, "note": 57, "velocity": 0, "channel": 0}, {"type": "note_off", "time": 4, "note": 61, "velocity": 0, "channel": 0}, {"type": "note_on", "time": 120, "note": 57, "velocity": 63, "channel": 0}, {"type": "note_on", "time": 0, "note": 52, "velocity": 66, "channel": 0}, {"type": "note_on", "time": 0, "note": 61, "velocity": 85, "channel": 0}, {"type": "note_off", "time": 32, "note": 57, "velocity": 0, "channel": 0}, {"type": "note_off", "time": 4, "note": 52, "velocity": 0, "channel": 0}, {"type": "note_off", "time": 0, "note": 61, "velocity": 0, "channel": 0}, {"type": "note_on", "time": 56, "note": 52, "velocity": 63, "channel": 0}, {"type": "note_on", "time": 0, "note": 57, "velocity": 48, "channel": 0}, {"type": "note_on", "time": 0, "note": 61, "velocity": 74, "channel": 0}, {"type": "note_off", "time": 84, "note": 52, "velocity": 0, "channel": 0}, {"type": "note_off", "time": 12, "note": 57, "velocity": 0, "channel": 0}, {"type": "note_off", "time": 4, "note": 61, "velocity": 0, "channel": 0}, {"type": "note_on", "time": 92, "note": 51, "velocity": 81, "channel": 0}, {"type": "note_on", "time": 4, "note": 56, "velocity": 93, "channel": 0}, {"type": "note_on", "time": 0, "note": 59, "velocity": 85, "channel": 0}, {"type": "note_off", "time": 44, "note": 56, "velocity": 0, "channel": 0}, {"type": "note_off", "time": 4, "note": 51, "velocity": 0, "channel": 0}, {"type": "note_off", "time": 16, "note": 59, "velocity": 0, "channel": 0}, {"type": "note_on", "time": 132, "note": 56, "velocity": 89, "channel": 0}, {"type": "note_on", "time": 0, "note": 61, "velocity": 89, "channel": 0}, {"type": "note_on", "time": 0, "note": 64, "velocity": 93, "channel": 0}, {"type": "note_off", "time": 360, "note": 56, "velocity": 0, "channel": 0}, {"type": "note_off", "time": 0, "note": 61, "velocity": 0, "channel": 0}, {"type": "note_off", "time": 8, "note": 64, "velocity": 0, "channel": 0}, {"type": "note_on", "time": 16, "note": 63, "velocity": 81, "channel": 0}, {"type": "note_on", "time": 0, "note": 59, "velocity": 81, "channel": 0}, {"type": "note_on", "time": 8, "note": 54, "velocity": 63, "channel": 0}, {"type": "note_on", "time": 756, "note": 58, "velocity": 78, "channel": 0}, {"type": "note_on", "time": 4, "note": 61, "velocity": 78, "channel": 0}, {"type": "note_off", "time": 4, "note": 63, "velocity": 0, "channel": 0}, {"type": "note_off", "time": 4, "note": 59, "velocity": 0, "channel": 0}, {"type": "note_off", "time": 680, "note": 54, "velocity": 0, "channel": 0}, {"type": "note_on", "time": 60, "note": 63, "velocity": 70, "channel": 0}, {"type": "note_on", "time": 4, "note": 56, "velocity": 78, "channel": 0}, {"type": "note_on", "time": 0, "note": 59, "velocity": 74, "channel": 0}, {"type": "note_off", "time": 20, "note": 61, "velocity": 0, "channel": 0}, {"type": "note_off", "time": 8, "note": 58, "velocity": 0, "channel": 0}, {"type": "note_off", "time": 1392, "note": 63, "velocity": 0, "channel": 0}, {"type": "note_off", "time": 44, "note": 56, "velocity": 0, "channel": 0}, {"type": "note_off", "time": 48, "note": 59, "velocity": 0, "channel": 0}, {"type": "note_on", "time": 32, "note": 61, "velocity": 70, "channel": 0}, {"type": "note_on", "time": 8, "note": 52, "velocity": 81, "channel": 0}, {"type": "note_on", "time": 0, "note": 57, "velocity": 78, "channel": 0}, {"type": "note_off", "time": 208, "note": 52, "velocity": 0, "channel": 0}, {"type": "note_off", "time": 4, "note": 61, "velocity": 0, "channel": 0}, {"type": "note_off", "time": 4, "note": 57, "velocity": 0, "channel": 0}, {"type": "note_on", "time": 52, "note": 52, "velocity": 78, "channel": 0}, {"type": "note_on", "time": 0, "note": 61, "velocity": 85, "channel": 0}, {"type": "note_on", "time": 12, "note": 57, "velocity": 78, "channel": 0}, {"type": "note_off", "time": 48, "note": 52, "velocity": 0, "channel": 0}, {"type": "note_off", "time": 8, "note": 61, "velocity": 0, "channel": 0}, {"type": "note_off", "time": 0, "note": 57, "velocity": 0, "channel": 0}, {"type": "note_on", "time": 144, "note": 61, "velocity": 78, "channel": 0}, {"type": "note_on", "time": 0, "note": 57, "velocity": 81, "channel": 0}, {"type": "note_on", "time": 8, "note": 52, "velocity": 78, "channel": 0}, {"type": "note_off", "time": 56, "note": 52, "velocity": 0, "channel": 0}, {"type": "note_off", "time": 8, "note": 61, "velocity": 0, "channel": 0}, {"type": "note_off", "time": 0, "note": 57, "velocity": 0, "channel": 0}, {"type": "note_on", "time": 100, "note": 61, "velocity": 70, "channel": 0}, {"type": "note_on", "time": 4, "note": 52, "velocity": 59, "channel": 0}, {"type": "note_on", "time": 8, "note": 57, "velocity": 48, "channel": 0}, {"type": "note_off", "time": 24, "note": 61, "velocity": 0, "channel": 0}, {"type": "note_off", "time": 0, "note": 52, "velocity": 0, "channel": 0}, {"type": "note_off", "time": 0, "note": 57, "velocity": 0, "channel": 0}, {"type": "note_on", "time": 40, "note": 52, "velocity": 55, "channel": 0}, {"type": "note_on", "time": 8, "note": 61, "velocity": 85, "channel": 0}, {"type": "note_on", "time": 8, "note": 57, "velocity": 70, "channel": 0}, {"type": "note_off", "time": 64, "note": 52, "velocity": 0, "channel": 0}, {"type": "note_off", "time": 16, "note": 61, "velocity": 0, "channel": 0}, {"type": "note_off", "time": 0, "note": 57, "velocity": 0, "channel": 0}, {"type": "note_on", "time": 112, "note": 59, "velocity": 85, "channel": 0}, {"type": "note_on", "time": 4, "note": 56, "velocity": 85, "channel": 0}, {"type": "note_on", "time": 4, "note": 51, "velocity": 78, "channel": 0}, {"type": "note_off", "time": 44, "note": 56, "velocity": 0, "channel": 0}, {"type": "note_off", "time": 4, "note": 51, "velocity": 0, "channel": 0}, {"type": "note_off", "time": 8, "note": 59, "velocity": 0, "channel": 0}, {"type": "note_on", "time": 148, "note": 56, "velocity": 93, "channel": 0}, {"type": "note_on", "time": 0, "note": 61, "velocity": 85, "channel": 0}, {"type": "note_on", "time": 4, "note": 64, "velocity": 96, "channel": 0}, {"type": "note_off", "time": 1888, "note": 56, "velocity": 0, "channel": 0}, {"type": "note_off", "time": 4, "note": 61, "velocity": 0, "channel": 0}, {"type": "note_off", "time": 4, "note": 64, "velocity": 0, "channel": 0}, {"type": "note_on", "time": 24, "note": 61, "velocity": 93, "channel": 0}, {"type": "note_on", "time": 0, "note": 57, "velocity": 96, "channel": 0}, {"type": "note_on", "time": 8, "note": 66, "velocity": 96, "channel": 0}, {"type": "note_on", "time": 0, "note": 69, "velocity": 104, "channel": 0}, {"type": "note_off", "time": 752, "note": 61, "velocity": 0, "channel": 0}, {"type": "note_on", "time": 4, "note": 62, "velocity": 96, "channel": 0}, {"type": "note_off", "time": 756, "note": 62, "velocity": 0, "channel": 0}, {"type": "note_off", "time": 16, "note": 66, "velocity": 0, "channel": 0}, {"type": "note_on", "time": 0, "note": 61, "velocity": 89, "channel": 0}, {"type": "note_on", "time": 8, "note": 64, "velocity": 96, "channel": 0}, {"type": "note_on", "time": 756, "note": 68, "velocity": 89, "channel": 0}, {"type": "note_off", "time": 4, "note": 69, "velocity": 0, "channel": 0}, {"type": "note_on", "time": 0, "note": 56, "velocity": 93, "channel": 0}, {"type": "note_on", "time": 0, "note": 59, "velocity": 81, "channel": 0}, {"type": "note_off", "time": 8, "note": 57, "velocity": 0, "channel": 0}, {"type": "note_off", "time": 0, "note": 61, "velocity": 0, "channel": 0}, {"type": "note_on", "time": 276, "note": 69, "velocity": 89, "channel": 0}, {"type": "note_off", "time": 32, "note": 68, "velocity": 0, "channel": 0}, {"type": "note_off", "time": 228, "note": 69, "velocity": 0, "channel": 0}, {"type": "note_on", "time": 28, "note": 68, "velocity": 93, "channel": 0}, {"type": "note_off", "time": 4, "note": 56, "velocity": 0, "channel": 0}, {"type": "note_off", "time": 128, "note": 64, "velocity": 0, "channel": 0}, {"type": "note_off", "time": 56, "note": 59, "velocity": 0, "channel": 0}, {"type": "note_off", "time": 4, "note": 68, "velocity": 0, "channel": 0}, {"type": "note_on", "time": 4, "note": 61, "velocity": 93, "channel": 0}, {"type": "note_on", "time": 0, "note": 57, "velocity": 96, "channel": 0}, {"type": "note_on", "time": 8, "note": 66, "velocity": 96, "channel": 0}, {"type": "note_on", "time": 0, "note": 69, "velocity": 104, "channel": 0}, {"type": "note_off", "time": 760, "note": 61, "velocity": 0, "channel": 0}, {"type": "note_on", "time": 0, "note": 62, "velocity": 96, "channel": 0}, {"type": "note_off", "time": 744, "note": 62, "velocity": 0, "channel": 0}, {"type": "note_on", "time": 20, "note": 61, "velocity": 89, "channel": 0}, {"type": "note_on", "time": 0, "note": 64, "velocity": 96, "channel": 0}, {"type": "note_off", "time": 4, "note": 66, "velocity": 0, "channel": 0}, {"type": "note_off", "time": 768, "note": 69, "velocity": 0, "channel": 0}, {"type": "note_on", "time": 0, "note": 56, "velocity": 93, "channel": 0}, {"type": "note_on", "time": 0, "note": 59, "velocity": 81, "channel": 0}, {"type": "note_off", "time": 4, "note": 61, "velocity": 0, "channel": 0}, {"type": "note_off", "time": 4, "note": 57, "velocity": 0, "channel": 0}, {"type": "note_on", "time": 0, "note": 68, "velocity": 89, "channel": 0}, {"type": "note_on", "time": 280, "note": 69, "velocity": 89, "channel": 0}, {"type": "note_off", "time": 28, "note": 68, "velocity": 0, "channel": 0}, {"type": "note_off", "time": 228, "note": 69, "velocity": 0, "channel": 0}, {"type": "note_on", "time": 28, "note": 68, "velocity": 93, "channel": 0}, {"type": "note_off", "time": 4, "note": 56, "velocity": 0, "channel": 0}, {"type": "note_off", "time": 128, "note": 64, "velocity": 0, "channel": 0}, {"type": "note_off", "time": 56, "note": 59, "velocity": 0, "channel": 0}, {"type": "note_off", "time": 0, "note": 68, "velocity": 0, "channel": 0}, {"type": "note_on", "time": 8, "note": 61, "velocity": 93, "channel": 0}, {"type": "note_on", "time": 0, "note": 69, "velocity": 104, "channel": 0}, {"type": "note_on", "time": 0, "note": 57, "velocity": 96, "channel": 0}, {"type": "note_on", "time": 8, "note": 66, "velocity": 96, "channel": 0}, {"type": "note_off", "time": 752, "note": 61, "velocity": 0, "channel": 0}, {"type": "note_on", "time": 0, "note": 62, "velocity": 96, "channel": 0}, {"type": "note_off", "time": 760, "note": 62, "velocity": 0, "channel": 0}, {"type": "note_off", "time": 16, "note": 66, "velocity": 0, "channel": 0}, {"type": "note_on", "time": 0, "note": 61, "velocity": 89, "channel": 0}, {"type": "note_on", "time": 0, "note": 64, "velocity": 96, "channel": 0}, {"type": "note_off", "time": 760, "note": 69, "velocity": 0, "channel": 0}, {"type": "note_on", "time": 8, "note": 59, "velocity": 81, "channel": 0}, {"type": "note_off", "time": 8, "note": 57, "velocity": 0, "channel": 0}, {"type": "note_off", "time": 0, "note": 61, "velocity": 0, "channel": 0}, {"type": "note_on", "time": 0, "note": 68, "velocity": 89, "channel": 0}, {"type": "note_on", "time": 0, "note": 56, "velocity": 93, "channel": 0}, {"type": "note_on", "time": 280, "note": 69, "velocity": 89, "channel": 0}, {"type": "note_off", "time": 32, "note": 68, "velocity": 0, "channel": 0}, {"type": "note_off", "time": 224, "note": 69, "velocity": 0, "channel": 0}, {"type": "note_on", "time": 32, "note": 68, "velocity": 93, "channel": 0}, {"type": "note_off", "time": 8, "note": 56, "velocity": 0, "channel": 0}, {"type": "note_off", "time": 120, "note": 64, "velocity": 0, "channel": 0}, {"type": "note_off", "time": 56, "note": 59, "velocity": 0, "channel": 0}, {"type": "note_off", "time": 0, "note": 68, "velocity": 0, "channel": 0}, {"type": "note_on", "time": 16, "note": 61, "velocity": 96, "channel": 0}, {"type": "note_on", "time": 0, "note": 66, "velocity": 93, "channel": 0}, {"type": "note_on", "time": 0, "note": 57, "velocity": 93, "channel": 0}, {"type": "note_on", "time": 4, "note": 69, "velocity": 100, "channel": 0}, {"type": "note_on", "time": 756, "note": 62, "velocity": 85, "channel": 0}, {"type": "note_off", "time": 28, "note": 61, "velocity": 0, "channel": 0}, {"type": "note_off", "time": 740, "note": 62, "velocity": 0, "channel": 0}, {"type": "note_on", "time": 0, "note": 61, "velocity": 85, "channel": 0}, {"type": "note_on", "time": 0, "note": 64, "velocity": 93, "channel": 0}, {"type": "note_off", "time": 12, "note": 66, "velocity": 0, "channel": 0}, {"type": "note_off", "time": 756, "note": 69, "velocity": 0, "channel": 0}, {"type": "note_on", "time": 0, "note": 68, "velocity": 81, "channel": 0}, {"type": "note_off", "time": 8, "note": 57, "velocity": 0, "channel": 0}, {"type": "note_on", "time": 0, "note": 56, "velocity": 93, "channel": 0}, {"type": "note_off", "time": 728, "note": 61, "velocity": 0, "channel": 0}, {"type": "note_off", "time": 0, "note": 64, "velocity": 0, "channel": 0}, {"type": "note_off", "time": 8, "note": 68, "velocity": 0, "channel": 0}, {"type": "note_on", "time": 20, "note": 52, "velocity": 78, "channel": 0}, {"type": "note_on", "time": 4, "note": 59, "velocity": 89, "channel": 0}, {"type": "note_off", "time": 728, "note": 56, "velocity": 0, "channel": 0}, {"type": "note_off", "time": 32, "note": 59, "velocity": 0, "channel": 0}, {"type": "note_on", "time": 4, "note": 59, "velocity": 85, "channel": 0}, {"type": "note_on", "time": 4, "note": 54, "velocity": 70, "channel": 0}, {"type": "note_on", "time": 0, "note": 57, "velocity": 89, "channel": 0}, {"type": "note_off", "time": 8, "note": 52, "velocity": 0, "channel": 0}, {"type": "note_off", "time": 0, "note": 59, "velocity": 0, "channel": 0}, {"type": "note_off", "time": 432, "note": 54, "velocity": 0, "channel": 0}, {"type": "note_on", "time": 36, "note": 59, "velocity": 93, "channel": 0}, {"type": "note_on", "time": 0, "note": 56, "velocity": 93, "channel": 0}, {"type": "note_off", "time": 4, "note": 57, "velocity": 0, "channel": 0}, {"type": "note_off", "time": 0, "note": 59, "velocity": 0, "channel": 0}, {"type": "note_on", "time": 0, "note": 64, "velocity": 89, "channel": 0}, {"type": "note_off", "time": 280, "note": 56, "velocity": 0, "channel": 0}, {"type": "note_off", "time": 8, "note": 64, "velocity": 0, "channel": 0}, {"type": "note_on", "time": 8, "note": 52, "velocity": 85, "channel": 0}, {"type": "note_on", "time": 0, "note": 61, "velocity": 89, "channel": 0}, {"type": "note_on", "time": 0, "note": 57, "velocity": 89, "channel": 0}, {"type": "note_off", "time": 232, "note": 52, "velocity": 0, "channel": 0}, {"type": "note_off", "time": 0, "note": 61, "velocity": 0, "channel": 0}, {"type": "note_off", "time": 8, "note": 57, "velocity": 0, "channel": 0}, {"type": "note_on", "time": 36, "note": 52, "velocity": 81, "channel": 0}, {"type": "note_on", "time": 0, "note": 57, "velocity": 70, "channel": 0}, {"type": "note_on", "time": 12, "note": 61, "velocity": 93, "channel": 0}, {"type": "note_off", "time": 48, "note": 52, "velocity": 0, "channel": 0}, {"type": "note_off", "time": 0, "note": 57, "velocity": 0, "channel": 0}, {"type": "note_off", "time": 0, "note": 61, "velocity": 0, "channel": 0}, {"type": "note_on", "time": 132, "note": 57, "velocity": 96, "channel": 0}, {"type": "note_on", "time": 4, "note": 61, "velocity": 85, "channel": 0}, {"type": "note_on", "time": 8, "note": 52, "velocity": 81, "channel": 0}, {"type": "note_off", "time": 36, "note": 52, "velocity": 0, "channel": 0}, {"type": "note_off", "time": 12, "note": 61, "velocity": 0, "channel": 0}, {"type": "note_off", "time": 4, "note": 57, "velocity": 0, "channel": 0}, {"type": "note_on", "time": 128, "note": 61, "velocity": 78, "channel": 0}, {"type": "note_on", "time": 0, "note": 57, "velocity": 89, "channel": 0}, {"type": "note_on", "time": 4, "note": 52, "velocity": 81, "channel": 0}, {"type": "note_off", "time": 24, "note": 52, "velocity": 0, "channel": 0}, {"type": "note_off", "time": 4, "note": 61, "velocity": 0, "channel": 0}, {"type": "note_off", "time": 4, "note": 57, "velocity": 0, "channel": 0}, {"type": "note_on", "time": 64, "note": 52, "velocity": 74, "channel": 0}, {"type": "note_on", "time": 0, "note": 57, "velocity": 18, "channel": 0}, {"type": "note_on", "time": 0, "note": 61, "velocity": 93, "channel": 0}, {"type": "note_off", "time": 56, "note": 52, "velocity": 0, "channel": 0}, {"type": "note_off", "time": 32, "note": 57, "velocity": 0, "channel": 0}, {"type": "note_off", "time": 0, "note": 61, "velocity": 0, "channel": 0}, {"type": "note_on", "time": 100, "note": 51, "velocity": 96, "channel": 0}, {"type": "note_on", "time": 0, "note": 56, "velocity": 85, "channel": 0}, {"type": "note_on", "time": 0, "note": 59, "velocity": 78, "channel": 0}, {"type": "note_off", "time": 52, "note": 51, "velocity": 0, "channel": 0}, {"type": "note_off", "time": 12, "note": 56, "velocity": 0, "channel": 0}, {"type": "note_off", "time": 4, "note": 59, "velocity": 0, "channel": 0}, {"type": "note_on", "time": 120, "note": 61, "velocity": 93, "channel": 0}, {"type": "note_on", "time": 4, "note": 56, "velocity": 93, "channel": 0}, {"type": "note_on", "time": 12, "note": 64, "velocity": 89, "channel": 0}, {"type": "note_off", "time": 1864, "note": 61, "velocity": 0, "channel": 0}, {"type": "note_off", "time": 0, "note": 64, "velocity": 0, "channel": 0}, {"type": "note_off", "time": 12, "note": 56, "velocity": 0, "channel": 0}, {"type": "note_on", "time": 36, "note": 61, "velocity": 89, "channel": 0}, {"type": "note_on", "time": 0, "note": 57, "velocity": 89, "channel": 0}, {"type": "note_on", "time": 8, "note": 52, "velocity": 85, "channel": 0}, {"type": "note_off", "time": 224, "note": 61, "velocity": 0, "channel": 0}, {"type": "note_off", "time": 8, "note": 52, "velocity": 0, "channel": 0}, {"type": "note_off", "time": 8, "note": 57, "velocity": 0, "channel": 0}, {"type": "note_on", "time": 36, "note": 52, "velocity": 81, "channel": 0}, {"type": "note_on", "time": 4, "note": 57, "velocity": 70, "channel": 0}, {"type": "note_on", "time": 0, "note": 61, "velocity": 93, "channel": 0}, {"type": "note_off", "time": 56, "note": 52, "velocity": 0, "channel": 0}, {"type": "note_off", "time": 8, "note": 57, "velocity": 0, "channel": 0}, {"type": "note_off", "time": 0, "note": 61, "velocity": 0, "channel": 0}, {"type": "note_on", "time": 124, "note": 57, "velocity": 96, "channel": 0}, {"type": "note_on", "time": 4, "note": 52, "velocity": 81, "channel": 0}, {"type": "note_on", "time": 0, "note": 61, "velocity": 85, "channel": 0}, {"type": "note_off", "time": 48, "note": 52, "velocity": 0, "channel": 0}, {"type": "note_off", "time": 4, "note": 61, "velocity": 0, "channel": 0}, {"type": "note_off", "time": 4, "note": 57, "velocity": 0, "channel": 0}, {"type": "note_on", "time": 136, "note": 57, "velocity": 89, "channel": 0}, {"type": "note_on", "time": 8, "note": 52, "velocity": 81, "channel": 0}, {"type": "note_on", "time": 0, "note": 61, "velocity": 78, "channel": 0}, {"type": "note_off", "time": 20, "note": 52, "velocity": 0, "channel": 0}, {"type": "note_off", "time": 4, "note": 57, "velocity": 0, "channel": 0}, {"type": "note_off", "time": 0, "note": 61, "velocity": 0, "channel": 0}, {"type": "note_on", "time": 72, "note": 52, "velocity": 74, "channel": 0}, {"type": "note_on", "time": 0, "note": 57, "velocity": 18, "channel": 0}, {"type": "note_on", "time": 0, "note": 61, "velocity": 93, "channel": 0}, {"type": "note_off", "time": 52, "note": 52, "velocity": 0, "channel": 0}, {"type": "note_off", "time": 32, "note": 57, "velocity": 0, "channel": 0}, {"type": "note_off", "time": 0, "note": 61, "velocity": 0, "channel": 0}, {"type": "note_on", "time": 96, "note": 59, "velocity": 78, "channel": 0}, {"type": "note_on", "time": 0, "note": 51, "velocity": 96, "channel": 0}, {"type": "note_on", "time": 0, "note": 56, "velocity": 85, "channel": 0}, {"type": "note_off", "time": 68, "note": 59, "velocity": 0, "channel": 0}, {"type": "note_off", "time": 0, "note": 51, "velocity": 0, "channel": 0}, {"type": "note_off", "time": 0, "note": 56, "velocity": 0, "channel": 0}, {"type": "note_on", "time": 128, "note": 64, "velocity": 89, "channel": 0}, {"type": "note_on", "time": 8, "note": 56, "velocity": 93, "channel": 0}, {"type": "note_on", "time": 0, "note": 61, "velocity": 93, "channel": 0}, {"type": "note_off", "time": 1864, "note": 64, "velocity": 0, "channel": 0}, {"type": "note_off", "time": 8, "note": 56, "velocity": 0, "channel": 0}, {"type": "note_off", "time": 0, "note": 61, "velocity": 0, "channel": 0}, {"type": "note_on", "time": 36, "note": 59, "velocity": 85, "channel": 0}, {"type": "note_on", "time": 0, "note": 63, "velocity": 89, "channel": 0}, {"type": "note_on", "time": 4, "note": 54, "velocity": 74, "channel": 0}, {"type": "note_on", "time": 764, "note": 58, "velocity": 85, "channel": 0}, {"type": "note_off", "time": 4, "note": 59, "velocity": 0, "channel": 0}, {"type": "note_off", "time": 0, "note": 63, "velocity": 0, "channel": 0}, {"type": "note_on", "time": 0, "note": 61, "velocity": 78, "channel": 0}, {"type": "note_off", "time": 680, "note": 54, "velocity": 0, "channel": 0}, {"type": "note_off", "time": 80, "note": 61, "velocity": 0, "channel": 0}, {"type": "note_on", "time": 8, "note": 56, "velocity": 85, "channel": 0}, {"type": "note_on", "time": 0, "note": 63, "velocity": 70, "channel": 0}, {"type": "note_on", "time": 0, "note": 59, "velocity": 78, "channel": 0}, {"type": "note_off", "time": 32, "note": 58, "velocity": 0, "channel": 0}, {"type": "note_off", "time": 1424, "note": 56, "velocity": 0, "channel": 0}, {"type": "note_off", "time": 16, "note": 63, "velocity": 0, "channel": 0}, {"type": "note_on", "time": 60, "note": 61, "velocity": 78, "channel": 0}, {"type": "note_on", "time": 4, "note": 57, "velocity": 78, "channel": 0}, {"type": "note_on", "time": 0, "note": 52, "velocity": 78, "channel": 0}, {"type": "note_off", "time": 8, "note": 59, "velocity": 0, "channel": 0}, {"type": "note_off", "time": 664, "note": 61, "velocity": 0, "channel": 0}, {"type": "note_off", "time": 80, "note": 57, "velocity": 0, "channel": 0}, {"type": "note_on", "time": 8, "note": 56, "velocity": 74, "channel": 0}, {"type": "note_on", "time": 0, "note": 59, "velocity": 81, "channel": 0}, {"type": "note_off", "time": 632, "note": 52, "velocity": 0, "channel": 0}, {"type": "note_off", "time": 132, "note": 56, "velocity": 0, "channel": 0}, {"type": "note_on", "time": 8, "note": 54, "velocity": 74, "channel": 0}, {"type": "note_on", "time": 0, "note": 63, "velocity": 85, "channel": 0}, {"type": "note_off", "time": 688, "note": 54, "velocity": 0, "channel": 0}, {"type": "note_off", "time": 20, "note": 63, "velocity": 0, "channel": 0}, {"type": "note_off", "time": 52, "note": 59, "velocity": 0, "channel": 0}, {"type": "note_on", "time": 4, "note": 52, "velocity": 78, "channel": 0}, {"type": "note_on", "time": 0, "note": 57, "velocity": 74, "channel": 0}, {"type": "note_on", "time": 4, "note": 61, "velocity": 78, "channel": 0}, {"type": "note_off", "time": 228, "note": 52, "velocity": 0, "channel": 0}, {"type": "note_off", "time": 8, "note": 57, "velocity": 0, "channel": 0}, {"type": "note_off", "time": 0, "note": 61, "velocity": 0, "channel": 0}, {"type": "note_on", "time": 52, "note": 52, "velocity": 85, "channel": 0}, {"type": "note_on", "time": 0, "note": 61, "velocity": 93, "channel": 0}, {"type": "note_on", "time": 4, "note": 57, "velocity": 63, "channel": 0}, {"type": "note_off", "time": 56, "note": 52, "velocity": 0, "channel": 0}, {"type": "note_off", "time": 16, "note": 61, "velocity": 0, "channel": 0}, {"type": "note_off", "time": 0, "note": 57, "velocity": 0, "channel": 0}, {"type": "note_on", "time": 112, "note": 52, "velocity": 81, "channel": 0}, {"type": "note_on", "time": 4, "note": 57, "velocity": 81, "channel": 0}, {"type": "note_on", "time": 0, "note": 61, "velocity": 85, "channel": 0}, {"type": "note_off", "time": 64, "note": 52, "velocity": 0, "channel": 0}, {"type": "note_off", "time": 4, "note": 57, "velocity": 0, "channel": 0}, {"type": "note_off", "time": 4, "note": 61, "velocity": 0, "channel": 0}, {"type": "note_on", "time": 120, "note": 57, "velocity": 63, "channel": 0}, {"type": "note_on", "time": 0, "note": 52, "velocity": 66, "channel": 0}, {"type": "note_on", "time": 0, "note": 61, "velocity": 85, "channel": 0}, {"type": "note_off", "time": 36, "note": 57, "velocity": 0, "channel": 0}, {"type": "note_off", "time": 0, "note": 52, "velocity": 0, "channel": 0}, {"type": "note_off", "time": 0, "note": 61, "velocity": 0, "channel": 0}, {"type": "note_on", "time": 72, "note": 52, "velocity": 63, "channel": 0}, {"type": "note_on", "time": 0, "note": 57, "velocity": 48, "channel": 0}, {"type": "note_on", "time": 0, "note": 61, "velocity": 74, "channel": 0}, {"type": "note_off", "time": 68, "note": 52, "velocity": 0, "channel": 0}, {"type": "note_off", "time": 4, "note": 57, "velocity": 0, "channel": 0}, {"type": "note_off", "time": 12, "note": 61, "velocity": 0, "channel": 0}, {"type": "note_on", "time": 96, "note": 51, "velocity": 81, "channel": 0}, {"type": "note_on", "time": 4, "note": 56, "velocity": 93, "channel": 0}, {"type": "note_on", "time": 0, "note": 59, "velocity": 85, "channel": 0}, {"type": "note_off", "time": 40, "note": 56, "velocity": 0, "channel": 0}, {"type": "note_off", "time": 8, "note": 51, "velocity": 0, "channel": 0}, {"type": "note_off", "time": 8, "note": 59, "velocity": 0, "channel": 0}, {"type": "note_on", "time": 136, "note": 56, "velocity": 89, "channel": 0}, {"type": "note_on", "time": 0, "note": 64, "velocity": 93, "channel": 0}, {"type": "note_on", "time": 0, "note": 61, "velocity": 89, "channel": 0}, {"type": "note_off", "time": 356, "note": 56, "velocity": 0, "channel": 0}, {"type": "note_off", "time": 12, "note": 64, "velocity": 0, "channel": 0}, {"type": "note_off", "time": 0, "note": 61, "velocity": 0, "channel": 0}, {"type": "note_on", "time": 16, "note": 63, "velocity": 81, "channel": 0}, {"type": "note_on", "time": 0, "note": 59, "velocity": 81, "channel": 0}, {"type": "note_on", "time": 0, "note": 54, "velocity": 63, "channel": 0}, {"type": "note_on", "time": 760, "note": 58, "velocity": 78, "channel": 0}, {"type": "note_on", "time": 4, "note": 61, "velocity": 78, "channel": 0}, {"type": "note_off", "time": 8, "note": 63, "velocity": 0, "channel": 0}, {"type": "note_off", "time": 4, "note": 59, "velocity": 0, "channel": 0}, {"type": "note_off", "time": 680, "note": 54, "velocity": 0, "channel": 0}, {"type": "note_on", "time": 64, "note": 63, "velocity": 70, "channel": 0}, {"type": "note_on", "time": 0, "note": 56, "velocity": 78, "channel": 0}, {"type": "note_on", "time": 0, "note": 59, "velocity": 74, "channel": 0}, {"type": "note_off", "time": 16, "note": 61, "velocity": 0, "channel": 0}, {"type": "note_off", "time": 12, "note": 58, "velocity": 0, "channel": 0}, {"type": "note_off", "time": 1388, "note": 63, "velocity": 0, "channel": 0}, {"type": "note_off", "time": 40, "note": 56, "velocity": 0, "channel": 0}, {"type": "note_off", "time": 56, "note": 59, "velocity": 0, "channel": 0}, {"type": "note_on", "time": 36, "note": 61, "velocity": 70, "channel": 0}, {"type": "note_on", "time": 12, "note": 52, "velocity": 81, "channel": 0}, {"type": "note_on", "time": 0, "note": 57, "velocity": 78, "channel": 0}, {"type": "note_off", "time": 200, "note": 52, "velocity": 0, "channel": 0}, {"type": "note_off", "time": 8, "note": 61, "velocity": 0, "channel": 0}, {"type": "note_off", "time": 4, "note": 57, "velocity": 0, "channel": 0}, {"type": "note_on", "time": 52, "note": 52, "velocity": 78, "channel": 0}, {"type": "note_on", "time": 0, "note": 61, "velocity": 85, "channel": 0}, {"type": "note_on", "time": 8, "note": 57, "velocity": 78, "channel": 0}, {"type": "note_off", "time": 48, "note": 52, "velocity": 0, "channel": 0}, {"type": "note_off", "time": 16, "note": 61, "velocity": 0, "channel": 0}, {"type": "note_off", "time": 4, "note": 57, "velocity": 0, "channel": 0}, {"type": "note_on", "time": 132, "note": 61, "velocity": 78, "channel": 0}, {"type": "note_on", "time": 8, "note": 52, "velocity": 78, "channel": 0}, {"type": "note_on", "time": 0, "note": 57, "velocity": 81, "channel": 0}, {"type": "note_off", "time": 56, "note": 52, "velocity": 0, "channel": 0}, {"type": "note_off", "time": 4, "note": 61, "velocity": 0, "channel": 0}, {"type": "note_off", "time": 4, "note": 57, "velocity": 0, "channel": 0}, {"type": "note_on", "time": 96, "note": 61, "velocity": 70, "channel": 0}, {"type": "note_on", "time": 4, "note": 52, "velocity": 59, "channel": 0}, {"type": "note_on", "time": 12, "note": 57, "velocity": 48, "channel": 0}, {"type": "note_off", "time": 20, "note": 52, "velocity": 0, "channel": 0}, {"type": "note_off", "time": 4, "note": 61, "velocity": 0, "channel": 0}, {"type": "note_off", "time": 0, "note": 57, "velocity": 0, "channel": 0}, {"type": "note_on", "time": 48, "note": 52, "velocity": 55, "channel": 0}, {"type": "note_on", "time": 0, "note": 61, "velocity": 85, "channel": 0}, {"type": "note_on", "time": 8, "note": 57, "velocity": 70, "channel": 0}, {"type": "note_off", "time": 60, "note": 52, "velocity": 0, "channel": 0}, {"type": "note_off", "time": 20, "note": 61, "velocity": 0, "channel": 0}, {"type": "note_off", "time": 0, "note": 57, "velocity": 0, "channel": 0}, {"type": "note_on", "time": 116, "note": 59, "velocity": 85, "channel": 0}, {"type": "note_on", "time": 4, "note": 56, "velocity": 85, "channel": 0}, {"type": "note_on", "time": 0, "note": 51, "velocity": 78, "channel": 0}, {"type": "note_off", "time": 40, "note": 56, "velocity": 0, "channel": 0}, {"type": "note_off", "time": 8, "note": 51, "velocity": 0, "channel": 0}, {"type": "note_off", "time": 12, "note": 59, "velocity": 0, "channel": 0}, {"type": "note_on", "time": 156, "note": 56, "velocity": 93, "channel": 0}, {"type": "note_on", "time": 0, "note": 61, "velocity": 85, "channel": 0}, {"type": "note_on", "time": 0, "note": 64, "velocity": 96, "channel": 0}, {"type": "note_off", "time": 1880, "note": 56, "velocity": 0, "channel": 0}, {"type": "note_off", "time": 12, "note": 61, "velocity": 0, "channel": 0}, {"type": "note_off", "time": 0, "note": 64, "velocity": 0, "channel": 0}, {"type": "note_on", "time": 16, "note": 61, "velocity": 93, "channel": 0}, {"type": "note_on", "time": 0, "note": 69, "velocity": 104, "channel": 0}, {"type": "note_on", "time": 0, "note": 57, "velocity": 96, "channel": 0}, {"type": "note_on", "time": 4, "note": 66, "velocity": 96, "channel": 0}, {"type": "note_off", "time": 768, "note": 61, "velocity": 0, "channel": 0}, {"type": "note_on", "time": 8, "note": 62, "velocity": 96, "channel": 0}, {"type": "note_off", "time": 744, "note": 62, "velocity": 0, "channel": 0}, {"type": "note_on", "time": 12, "note": 64, "velocity": 96, "channel": 0}, {"type": "note_off", "time": 4, "note": 66, "velocity": 0, "channel": 0}, {"type": "note_on", "time": 0, "note": 61, "velocity": 89, "channel": 0}, {"type": "note_off", "time": 764, "note": 69, "velocity": 0, "channel": 0}, {"type": "note_on", "time": 4, "note": 59, "velocity": 81, "channel": 0}, {"type": "note_off", "time": 8, "note": 61, "velocity": 0, "channel": 0}, {"type": "note_on", "time": 0, "note": 68, "velocity": 89, "channel": 0}, {"type": "note_on", "time": 0, "note": 56, "velocity": 93, "channel": 0}, {"type": "note_off", "time": 8, "note": 57, "velocity": 0, "channel": 0}, {"type": "note_on", "time": 268, "note": 69, "velocity": 89, "channel": 0}, {"type": "note_off", "time": 36, "note": 68, "velocity": 0, "channel": 0}, {"type": "note_off", "time": 224, "note": 69, "velocity": 0, "channel": 0}, {"type": "note_on", "time": 28, "note": 68, "velocity": 93, "channel": 0}, {"type": "note_off", "time": 4, "note": 56, "velocity": 0, "channel": 0}, {"type": "note_off", "time": 128, "note": 64, "velocity": 0, "channel": 0}, {"type": "note_off", "time": 56, "note": 59, "velocity": 0, "channel": 0}, {"type": "note_off", "time": 8, "note": 68, "velocity": 0, "channel": 0}, {"type": "note_on", "time": 8, "note": 61, "velocity": 93, "channel": 0}, {"type": "note_on", "time": 0, "note": 66, "velocity": 96, "channel": 0}, {"type": "note_on", "time": 0, "note": 69, "velocity": 104, "channel": 0}, {"type": "note_on", "time": 0, "note": 57, "velocity": 96, "channel": 0}, {"type": "note_off", "time": 760, "note": 61, "velocity": 0, "channel": 0}, {"type": "note_on", "time": 0, "note": 62, "velocity": 96, "channel": 0}, {"type": "note_off", "time": 744, "note": 62, "velocity": 0, "channel": 0}, {"type": "note_off", "time": 24, "note": 66, "velocity": 0, "channel": 0}, {"type": "note_on", "time": 8, "note": 61, "velocity": 89, "channel": 0}, {"type": "note_on", "time": 0, "note": 64, "velocity": 96, "channel": 0}, {"type": "note_off", "time": 760, "note": 69, "velocity": 0, "channel": 0}, {"type": "note_on", "time": 0, "note": 56, "velocity": 93, "channel": 0}, {"type": "note_on", "time": 0, "note": 59, "velocity": 81, "channel": 0}, {"type": "note_off", "time": 8, "note": 61, "velocity": 0, "channel": 0}, {"type": "note_on", "time": 0, "note": 68, "velocity": 89, "channel": 0}, {"type": "note_off", "time": 4, "note": 57, "velocity": 0, "channel": 0}, {"type": "note_on", "time": 272, "note": 69, "velocity": 89, "channel": 0}, {"type": "note_off", "time": 28, "note": 68, "velocity": 0, "channel": 0}, {"type": "note_off", "time": 232, "note": 69, "velocity": 0, "channel": 0}, {"type": "note_on", "time": 28, "note": 68, "velocity": 93, "channel": 0}, {"type": "note_off", "time": 4, "note": 56, "velocity": 0, "channel": 0}, {"type": "note_off", "time": 128, "note": 64, "velocity": 0, "channel": 0}, {"type": "note_off", "time": 56, "note": 59, "velocity": 0, "channel": 0}, {"type": "note_off", "time": 4, "note": 68, "velocity": 0, "channel": 0}, {"type": "note_on", "time": 4, "note": 61, "velocity": 93, "channel": 0}, {"type": "note_on", "time": 0, "note": 57, "velocity": 96, "channel": 0}, {"type": "note_on", "time": 8, "note": 69, "velocity": 104, "channel": 0}, {"type": "note_on", "time": 4, "note": 66, "velocity": 96, "channel": 0}, {"type": "note_off", "time": 756, "note": 61, "velocity": 0, "channel": 0}, {"type": "note_on", "time": 0, "note": 62, "velocity": 96, "channel": 0}, {"type": "note_off", "time": 752, "note": 62, "velocity": 0, "channel": 0}, {"type": "note_off", "time": 8, "note": 66, "velocity": 0, "channel": 0}, {"type": "note_on", "time": 4, "note": 61, "velocity": 89, "channel": 0}, {"type": "note_on", "time": 0, "note": 64, "velocity": 96, "channel": 0}, {"type": "note_off", "time": 772, "note": 69, "velocity": 0, "channel": 0}, {"type": "note_on", "time": 0, "note": 68, "velocity": 89, "channel": 0}, {"type": "note_on", "time": 0, "note": 59, "velocity": 81, "channel": 0}, {"type": "note_off", "time": 8, "note": 57, "velocity": 0, "channel": 0}, {"type": "note_on", "time": 0, "note": 56, "velocity": 93, "channel": 0}, {"type": "note_off", "time": 4, "note": 61, "velocity": 0, "channel": 0}, {"type": "note_on", "time": 272, "note": 69, "velocity": 89, "channel": 0}, {"type": "note_off", "time": 28, "note": 68, "velocity": 0, "channel": 0}, {"type": "note_off", "time": 228, "note": 69, "velocity": 0, "channel": 0}, {"type": "note_on", "time": 32, "note": 68, "velocity": 93, "channel": 0}, {"type": "note_off", "time": 4, "note": 56, "velocity": 0, "channel": 0}, {"type": "note_off", "time": 128, "note": 64, "velocity": 0, "channel": 0}, {"type": "note_off", "time": 48, "note": 59, "velocity": 0, "channel": 0}, {"type": "note_off", "time": 0, "note": 68, "velocity": 0, "channel": 0}, {"type": "note_on", "time": 8, "note": 61, "velocity": 96, "channel": 0}, {"type": "note_on", "time": 0, "note": 66, "velocity": 93, "channel": 0}, {"type": "note_on", "time": 0, "note": 69, "velocity": 100, "channel": 0}, {"type": "note_on", "time": 0, "note": 57, "velocity": 93, "channel": 0}, {"type": "note_on", "time": 772, "note": 62, "velocity": 85, "channel": 0}, {"type": "note_off", "time": 32, "note": 61, "velocity": 0, "channel": 0}, {"type": "note_on", "time": 732, "note": 61, "velocity": 85, "channel": 0}, {"type": "note_on", "time": 0, "note": 64, "velocity": 93, "channel": 0}, {"type": "note_off", "time": 8, "note": 62, "velocity": 0, "channel": 0}, {"type": "note_off", "time": 8, "note": 66, "velocity": 0, "channel": 0}, {"type": "note_off", "time": 752, "note": 69, "velocity": 0, "channel": 0}, {"type": "note_off", "time": 16, "note": 57, "velocity": 0, "channel": 0}, {"type": "note_on", "time": 0, "note": 68, "velocity": 81, "channel": 0}, {"type": "note_on", "time": 0, "note": 56, "velocity": 93, "channel": 0}, {"type": "note_off", "time": 728, "note": 61, "velocity": 0, "channel": 0}, {"type": "note_off", "time": 0, "note": 64, "velocity": 0, "channel": 0}, {"type": "note_off", "time": 8, "note": 68, "velocity": 0, "channel": 0}, {"type": "note_on", "time": 16, "note": 52, "velocity": 78, "channel": 0}, {"type": "note_on", "time": 0, "note": 59, "velocity": 89, "channel": 0}, {"type": "note_off", "time": 744, "note": 56, "velocity": 0, "channel": 0}, {"type": "note_off", "time": 24, "note": 52, "velocity": 0, "channel": 0}, {"type": "note_off", "time": 0, "note": 59, "velocity": 0, "channel": 0}, {"type": "note_on", "time": 8, "note": 54, "velocity": 70, "channel": 0}, {"type": "note_on", "time": 0, "note": 57, "velocity": 89, "channel": 0}, {"type": "note_on", "time": 8, "note": 59, "velocity": 85, "channel": 0}, {"type": "note_off", "time": 432, "note": 54, "velocity": 0, "channel": 0}, {"type": "note_off", "time": 40, "note": 57, "velocity": 0, "channel": 0}, {"type": "note_off", "time": 0, "note": 59, "velocity": 0, "channel": 0}, {"type": "note_on", "time": 0, "note": 56, "velocity": 93, "channel": 0}, {"type": "note_on", "time": 0, "note": 64, "velocity": 89, "channel": 0}, {"type": "note_on", "time": 0, "note": 59, "velocity": 93, "channel": 0}, {"type": "note_off", "time": 276, "note": 56, "velocity": 0, "channel": 0}, {"type": "note_off", "time": 12, "note": 64, "velocity": 0, "channel": 0}, {"type": "note_on", "time": 8, "note": 61, "velocity": 90, "channel": 0}, {"type": "note_on", "time": 0, "note": 52, "velocity": 90, "channel": 0}, {"type": "note_on", "time": 0, "note": 57, "velocity": 90, "channel": 0}, {"type": "note_off", "time": 184, "note": 59, "velocity": 0, "channel": 0}, {"type": "note_off", "time": 48, "note": 61, "velocity": 0, "channel": 0}, {"type": "note_off", "time": 0, "note": 52, "velocity": 0, "channel": 0}, {"type": "note_off", "time": 16, "note": 57, "velocity": 0, "channel": 0}, {"type": "note_on", "time": 24, "note": 57, "velocity": 88, "channel": 0}, {"type": "note_on", "time": 4, "note": 52, "velocity": 88, "channel": 0}, {"type": "note_on", "time": 4, "note": 61, "velocity": 88, "channel": 0}, {"type": "note_off", "time": 56, "note": 52, "velocity": 0, "channel": 0}, {"type": "note_off", "time": 0, "note": 61, "velocity": 0, "channel": 0}, {"type": "note_off", "time": 8, "note": 57, "velocity": 0, "channel": 0}, {"type": "note_on", "time": 124, "note": 52, "velocity": 87, "channel": 0}, {"type": "note_on", "time": 0, "note": 61, "velocity": 87, "channel": 0}, {"type": "note_on", "time": 4, "note": 57, "velocity": 87, "channel": 0}, {"type": "note_off", "time": 48, "note": 52, "velocity": 0, "channel": 0}, {"type": "note_off", "time": 8, "note": 61, "velocity": 0, "channel": 0}, {"type": "note_off", "time": 0, "note": 57, "velocity": 0, "channel": 0}, {"type": "note_on", "time": 120, "note": 57, "velocity": 86, "channel": 0}, {"type": "note_on", "time": 8, "note": 61, "velocity": 86, "channel": 0}, {"type": "note_on", "time": 4, "note": 52, "velocity": 86, "channel": 0}, {"type": "note_off", "time": 20, "note": 52, "velocity": 0, "channel": 0}, {"type": "note_off", "time": 8, "note": 61, "velocity": 0, "channel": 0}, {"type": "note_off", "time": 8, "note": 57, "velocity": 0, "channel": 0}, {"type": "note_on", "time": 60, "note": 57, "velocity": 85, "channel": 0}, {"type": "note_on", "time": 4, "note": 52, "velocity": 85, "channel": 0}, {"type": "note_on", "time": 0, "note": 61, "velocity": 85, "channel": 0}, {"type": "note_off", "time": 56, "note": 52, "velocity": 0, "channel": 0}, {"type": "note_off", "time": 24, "note": 57, "velocity": 0, "channel": 0}, {"type": "note_off", "time": 4, "note": 61, "velocity": 0, "channel": 0}, {"type": "note_on", "time": 100, "note": 51, "velocity": 84, "channel": 0}, {"type": "note_on", "time": 0, "note": 56, "velocity": 84, "channel": 0}, {"type": "note_on", "time": 0, "note": 59, "velocity": 84, "channel": 0}, {"type": "note_off", "time": 56, "note": 51, "velocity": 0, "channel": 0}, {"type": "note_off", "time": 8, "note": 56, "velocity": 0, "channel": 0}, {"type": "note_off", "time": 0, "note": 59, "velocity": 0, "channel": 0}, {"type": "note_on", "time": 136, "note": 61, "velocity": 82, "channel": 0}, {"type": "note_on", "time": 0, "note": 64, "velocity": 82, "channel": 0}, {"type": "note_on", "time": 8, "note": 56, "velocity": 82, "channel": 0}, {"type": "note_off", "time": 1856, "note": 61, "velocity": 0, "channel": 0}, {"type": "note_off", "time": 8, "note": 64, "velocity": 0, "channel": 0}, {"type": "note_off", "time": 0, "note": 56, "velocity": 0, "channel": 0}, {"type": "note_on", "time": 40, "note": 61, "velocity": 70, "channel": 0}, {"type": "note_on", "time": 0, "note": 52, "velocity": 70, "channel": 0}, {"type": "note_on", "time": 0, "note": 57, "velocity": 70, "channel": 0}, {"type": "note_off", "time": 244, "note": 61, "velocity": 0, "channel": 0}, {"type": "note_off", "time": 4, "note": 52, "velocity": 0, "channel": 0}, {"type": "note_off", "time": 12, "note": 57, "velocity": 0, "channel": 0}, {"type": "note_on", "time": 32, "note": 52, "velocity": 67, "channel": 0}, {"type": "note_on", "time": 0, "note": 61, "velocity": 67, "channel": 0}, {"type": "note_on", "time": 0, "note": 57, "velocity": 67, "channel": 0}, {"type": "note_off", "time": 60, "note": 52, "velocity": 0, "channel": 0}, {"type": "note_off", "time": 4, "note": 61, "velocity": 0, "channel": 0}, {"type": "note_off", "time": 4, "note": 57, "velocity": 0, "channel": 0}, {"type": "note_on", "time": 120, "note": 57, "velocity": 66, "channel": 0}, {"type": "note_on", "time": 8, "note": 52, "velocity": 66, "channel": 0}, {"type": "note_on", "time": 0, "note": 61, "velocity": 66, "channel": 0}, {"type": "note_off", "time": 48, "note": 52, "velocity": 0, "channel": 0}, {"type": "note_off", "time": 4, "note": 57, "velocity": 0, "channel": 0}, {"type": "note_off", "time": 0, "note": 61, "velocity": 0, "channel": 0}, {"type": "note_on", "time": 136, "note": 52, "velocity": 66, "channel": 0}, {"type": "note_on", "time": 0, "note": 61, "velocity": 66, "channel": 0}, {"type": "note_on", "time": 4, "note": 57, "velocity": 66, "channel": 0}, {"type": "note_off", "time": 24, "note": 52, "velocity": 0, "channel": 0}, {"type": "note_off", "time": 4, "note": 61, "velocity": 0, "channel": 0}, {"type": "note_off", "time": 4, "note": 57, "velocity": 0, "channel": 0}, {"type": "note_on", "time": 64, "note": 52, "velocity": 65, "channel": 0}, {"type": "note_on", "time": 0, "note": 61, "velocity": 65, "channel": 0}, {"type": "note_on", "time": 0, "note": 57, "velocity": 65, "channel": 0}, {"type": "note_off", "time": 56, "note": 52, "velocity": 0, "channel": 0}, {"type": "note_off", "time": 32, "note": 61, "velocity": 0, "channel": 0}, {"type": "note_off", "time": 0, "note": 57, "velocity": 0, "channel": 0}, {"type": "note_on", "time": 100, "note": 51, "velocity": 64, "channel": 0}, {"type": "note_on", "time": 0, "note": 56, "velocity": 64, "channel": 0}, {"type": "note_on", "time": 0, "note": 59, "velocity": 64, "channel": 0}, {"type": "note_off", "time": 52, "note": 51, "velocity": 0, "channel": 0}, {"type": "note_off", "time": 4, "note": 56, "velocity": 0, "channel": 0}, {"type": "note_off", "time": 12, "note": 59, "velocity": 0, "channel": 0}, {"type": "note_on", "time": 120, "note": 61, "velocity": 62, "channel": 0}, {"type": "note_on", "time": 4, "note": 56, "velocity": 62, "channel": 0}, {"type": "note_on", "time": 12, "note": 64, "velocity": 62, "channel": 0}, {"type": "note_off", "time": 1864, "note": 64, "velocity": 0, "channel": 0}, {"type": "note_off", "time": 4, "note": 56, "velocity": 0, "channel": 0}, {"type": "note_off", "time": 4, "note": 61, "velocity": 0, "channel": 0}, {"type": "note_on", "time": 40, "note": 61, "velocity": 50, "channel": 0}, {"type": "note_on", "time": 0, "note": 57, "velocity": 50, "channel": 0}, {"type": "note_on", "time": 8, "note": 52, "velocity": 50, "channel": 0}, {"type": "note_off", "time": 224, "note": 61, "velocity": 0, "channel": 0}, {"type": "note_off", "time": 8, "note": 52, "velocity": 0, "channel": 0}, {"type": "note_off", "time": 8, "note": 57, "velocity": 0, "channel": 0}, {"type": "note_on", "time": 36, "note": 61, "velocity": 48, "channel": 0}, {"type": "note_on", "time": 4, "note": 52, "velocity": 48, "channel": 0}, {"type": "note_on", "time": 0, "note": 57, "velocity": 48, "channel": 0}, {"type": "note_off", "time": 56, "note": 52, "velocity": 0, "channel": 0}, {"type": "note_off", "time": 4, "note": 61, "velocity": 0, "channel": 0}, {"type": "note_off", "time": 4, "note": 57, "velocity": 0, "channel": 0}, {"type": "note_on", "time": 124, "note": 61, "velocity": 46, "channel": 0}, {"type": "note_on", "time": 0, "note": 57, "velocity": 46, "channel": 0}, {"type": "note_on", "time": 4, "note": 52, "velocity": 46, "channel": 0}, {"type": "note_off", "time": 48, "note": 61, "velocity": 0, "channel": 0}, {"type": "note_off", "time": 0, "note": 52, "velocity": 0, "channel": 0}, {"type": "note_off", "time": 4, "note": 57, "velocity": 0, "channel": 0}, {"type": "note_on", "time": 136, "note": 52, "velocity": 45, "channel": 0}, {"type": "note_on", "time": 4, "note": 61, "velocity": 45, "channel": 0}, {"type": "note_on", "time": 0, "note": 57, "velocity": 45, "channel": 0}, {"type": "note_off", "time": 24, "note": 52, "velocity": 0, "channel": 0}, {"type": "note_off", "time": 0, "note": 61, "velocity": 0, "channel": 0}, {"type": "note_off", "time": 8, "note": 57, "velocity": 0, "channel": 0}, {"type": "note_on", "time": 64, "note": 52, "velocity": 44, "channel": 0}, {"type": "note_on", "time": 0, "note": 61, "velocity": 44, "channel": 0}, {"type": "note_on", "time": 8, "note": 57, "velocity": 44, "channel": 0}, {"type": "note_off", "time": 48, "note": 52, "velocity": 0, "channel": 0}, {"type": "note_off", "time": 32, "note": 61, "velocity": 0, "channel": 0}, {"type": "note_off", "time": 0, "note": 57, "velocity": 0, "channel": 0}, {"type": "note_on", "time": 96, "note": 51, "velocity": 43, "channel": 0}, {"type": "note_on", "time": 4, "note": 56, "velocity": 43, "channel": 0}, {"type": "note_on", "time": 4, "note": 59, "velocity": 43, "channel": 0}, {"type": "note_off", "time": 48, "note": 51, "velocity": 0, "channel": 0}, {"type": "note_off", "time": 4, "note": 56, "velocity": 0, "channel": 0}, {"type": "note_off", "time": 4, "note": 59, "velocity": 0, "channel": 0}, {"type": "note_on", "time": 136, "note": 64, "velocity": 41, "channel": 0}, {"type": "note_on", "time": 8, "note": 56, "velocity": 41, "channel": 0}, {"type": "note_on", "time": 0, "note": 61, "velocity": 41, "channel": 0}, {"type": "note_off", "time": 1864, "note": 64, "velocity": 0, "channel": 0}, {"type": "note_off", "time": 8, "note": 56, "velocity": 0, "channel": 0}, {"type": "note_off", "time": 0, "note": 61, "velocity": 0, "channel": 0}, {"type": "note_on", "time": 32, "note": 52, "velocity": 29, "channel": 0}, {"type": "note_on", "time": 8, "note": 61, "velocity": 29, "channel": 0}, {"type": "note_on", "time": 8, "note": 57, "velocity": 29, "channel": 0}, {"type": "note_off", "time": 224, "note": 61, "velocity": 0, "channel": 0}, {"type": "note_off", "time": 8, "note": 52, "velocity": 0, "channel": 0}, {"type": "note_off", "time": 16, "note": 57, "velocity": 0, "channel": 0}, {"type": "note_on", "time": 32, "note": 61, "velocity": 27, "channel": 0}, {"type": "note_on", "time": 0, "note": 52, "velocity": 27, "channel": 0}, {"type": "note_on", "time": 0, "note": 57, "velocity": 27, "channel": 0}, {"type": "note_off", "time": 56, "note": 61, "velocity": 0, "channel": 0}, {"type": "note_off", "time": 0, "note": 52, "velocity": 0, "channel": 0}, {"type": "note_off", "time": 8, "note": 57, "velocity": 0, "channel": 0}, {"type": "note_on", "time": 124, "note": 57, "velocity": 26, "channel": 0}, {"type": "note_on", "time": 4, "note": 52, "velocity": 26, "channel": 0}, {"type": "note_on", "time": 0, "note": 61, "velocity": 26, "channel": 0}, {"type": "note_off", "time": 48, "note": 52, "velocity": 0, "channel": 0}, {"type": "note_off", "time": 4, "note": 57, "velocity": 0, "channel": 0}, {"type": "note_off", "time": 0, "note": 61, "velocity": 0, "channel": 0}, {"type": "note_on", "time": 132, "note": 52, "velocity": 25, "channel": 0}, {"type": "note_on", "time": 0, "note": 61, "velocity": 25, "channel": 0}, {"type": "note_on", "time": 0, "note": 57, "velocity": 25, "channel": 0}, {"type": "note_off", "time": 32, "note": 52, "velocity": 0, "channel": 0}, {"type": "note_off", "time": 0, "note": 61, "velocity": 0, "channel": 0}, {"type": "note_off", "time": 8, "note": 57, "velocity": 0, "channel": 0}, {"type": "note_on", "time": 60, "note": 61, "velocity": 24, "channel": 0}, {"type": "note_on", "time": 4, "note": 52, "velocity": 24, "channel": 0}, {"type": "note_on", "time": 0, "note": 57, "velocity": 24, "channel": 0}, {"type": "note_off", "time": 48, "note": 52, "velocity": 0, "channel": 0}, {"type": "note_off", "time": 40, "note": 57, "velocity": 0, "channel": 0}, {"type": "note_off", "time": 4, "note": 61, "velocity": 0, "channel": 0}, {"type": "note_on", "time": 96, "note": 51, "velocity": 23, "channel": 0}, {"type": "note_on", "time": 0, "note": 56, "velocity": 23, "channel": 0}, {"type": "note_on", "time": 0, "note": 59, "velocity": 23, "channel": 0}, {"type": "note_off", "time": 52, "note": 51, "velocity": 0, "channel": 0}, {"type": "note_off", "time": 4, "note": 56, "velocity": 0, "channel": 0}, {"type": "note_off", "time": 8, "note": 59, "velocity": 0, "channel": 0}, {"type": "note_on", "time": 128, "note": 56, "velocity": 21, "channel": 0}, {"type": "note_on", "time": 4, "note": 64, "velocity": 21, "channel": 0}, {"type": "note_on", "time": 8, "note": 61, "velocity": 21, "channel": 0}, {"type": "note_off", "time": 1864, "note": 64, "velocity": 0, "channel": 0}, {"type": "note_off", "time": 0, "note": 61, "velocity": 0, "channel": 0}, {"type": "note_off", "time": 8, "note": 56, "velocity": 0, "channel": 0}, {"type": "end_of_track", "time": 0}]